<svg xmlns="http://www.w3.org/2000/svg" xmlns:xlink="http://www.w3.org/1999/xlink" width="242.286" height="68.186" viewBox="0 0 242.286 68.186"><defs><clipPath id="a"><path d="M263.1,285.341h-7.856v-3.734h2.034V254.35h-2.034v-3.734h5.776v30.991h2.08Zm21.051-4.558a4.972,4.972,0,1,1-9.943,0V275.4h3.738v5.385a1.112,1.112,0,0,0,1.254,1.262,1.1,1.1,0,0,0,1.218-1.262v-2.472A5.911,5.911,0,0,0,278.8,274.4c-.989-1.091-1.982-2.193-2.974-3.292a8.625,8.625,0,0,1-1.615-5.207v-2.478a4.992,4.992,0,0,1,4.97-4.947,4.981,4.981,0,0,1,4.973,4.968v5.406h-3.734V263.43a1.236,1.236,0,0,0-2.471-.011V265.9a5.811,5.811,0,0,0,1.607,3.909c1.01,1.091,2.01,2.194,2.992,3.3a8.776,8.776,0,0,1,1.606,5.209Zm20.093,4.558h-2.911a4.978,4.978,0,0,1-4.949-4.957V262.6h-2.038v-3.734h2.038v-4.127h3.732v4.127h4.129V262.6H300.12v17.785a1.091,1.091,0,0,0,1.241,1.224h2.888ZM338.136,265.9a4.8,4.8,0,0,1-1.454,3.531,4.742,4.742,0,0,1-3.49,1.452h-1.258v14.461H328.2V250.616h4.977a4.809,4.809,0,0,1,3.509,1.459,4.757,4.757,0,0,1,1.454,3.494Zm-3.727,0V255.57a1.076,1.076,0,0,0-1.218-1.22h-1.258v12.8h1.258A1.1,1.1,0,0,0,334.409,265.9Zm24.827,19.444h-9.9V250.616h3.744v30.991h6.16Zm20.266,0h-3.714l-.7-6.21h-2.106l-.748,6.21h-3.669l3.687-34.725h3.565Zm-4.857-9.943-.617-5.381-.646,5.381Zm24.776,5.385a4.97,4.97,0,1,1-9.939,0V255.175a4.966,4.966,0,0,1,8.482-3.531,4.856,4.856,0,0,1,1.457,3.558v5.357h-3.738v-5.374c0-.852-.4-1.267-1.2-1.267a1.111,1.111,0,0,0-1.26,1.256v25.608a1.116,1.116,0,0,0,1.26,1.262c.809,0,1.2-.421,1.2-1.262V275.4h3.738Zm21.09,4.558h-9.9V250.616h9.9v3.734h-6.156v10.72h6.156V268.8h-6.156v12.8h6.156Zm-229.169-5.054-12.414-12.4,33.995-34,4.682,4.678-29.3,29.321,7.726,7.721ZM204.5,255.67,216.9,268.08l-33.99,33.99-4.687-4.682L207.54,268.08l-7.737-7.728Zm-6.23,9.823a2.486,2.486,0,1,0,2.486,2.486A2.486,2.486,0,0,0,198.266,265.493Z" transform="translate(-178.225 -233.885)" fill="#fff"/></clipPath></defs><g transform="translate(-718 -5000)"><g transform="translate(718 5000)"><path d="M263.1,285.341h-7.856v-3.734h2.034V254.35h-2.034v-3.734h5.776v30.991h2.08Zm21.051-4.558a4.972,4.972,0,1,1-9.943,0V275.4h3.738v5.385a1.112,1.112,0,0,0,1.254,1.262,1.1,1.1,0,0,0,1.218-1.262v-2.472A5.911,5.911,0,0,0,278.8,274.4c-.989-1.091-1.982-2.193-2.974-3.292a8.625,8.625,0,0,1-1.615-5.207v-2.478a4.992,4.992,0,0,1,4.97-4.947,4.981,4.981,0,0,1,4.973,4.968v5.406h-3.734V263.43a1.236,1.236,0,0,0-2.471-.011V265.9a5.811,5.811,0,0,0,1.607,3.909c1.01,1.091,2.01,2.194,2.992,3.3a8.776,8.776,0,0,1,1.606,5.209Zm20.093,4.558h-2.911a4.978,4.978,0,0,1-4.949-4.957V262.6h-2.038v-3.734h2.038v-4.127h3.732v4.127h4.129V262.6H300.12v17.785a1.091,1.091,0,0,0,1.241,1.224h2.888ZM338.136,265.9a4.8,4.8,0,0,1-1.454,3.531,4.742,4.742,0,0,1-3.49,1.452h-1.258v14.461H328.2V250.616h4.977a4.809,4.809,0,0,1,3.509,1.459,4.757,4.757,0,0,1,1.454,3.494Zm-3.727,0V255.57a1.076,1.076,0,0,0-1.218-1.22h-1.258v12.8h1.258A1.1,1.1,0,0,0,334.409,265.9Zm24.827,19.444h-9.9V250.616h3.744v30.991h6.16Zm20.266,0h-3.714l-.7-6.21h-2.106l-.748,6.21h-3.669l3.687-34.725h3.565Zm-4.857-9.943-.617-5.381-.646,5.381Zm24.776,5.385a4.97,4.97,0,1,1-9.939,0V255.175a4.966,4.966,0,0,1,8.482-3.531,4.856,4.856,0,0,1,1.457,3.558v5.357h-3.738v-5.374c0-.852-.4-1.267-1.2-1.267a1.111,1.111,0,0,0-1.26,1.256v25.608a1.116,1.116,0,0,0,1.26,1.262c.809,0,1.2-.421,1.2-1.262V275.4h3.738Zm21.09,4.558h-9.9V250.616h9.9v3.734h-6.156v10.72h6.156V268.8h-6.156v12.8h6.156Zm-229.169-5.054-12.414-12.4,33.995-34,4.682,4.678-29.3,29.321,7.726,7.721ZM204.5,255.67,216.9,268.08l-33.99,33.99-4.687-4.682L207.54,268.08l-7.737-7.728Zm-6.23,9.823a2.486,2.486,0,1,0,2.486,2.486A2.486,2.486,0,0,0,198.266,265.493Z" transform="translate(-178.225 -233.885)" fill="#fff"/><g transform="translate(0 0)" clip-path="url(#a)"><rect width="532.562" height="103.076" transform="translate(-145.138 -34.807)" fill="#fff"/></g></g></g></svg>