<svg xmlns="http://www.w3.org/2000/svg" width="681.035" height="702.886" viewBox="0 0 681.035 702.886"><path d="M988.4,414.414c52.593,110.542,5.631,242.815-104.917,295.411C772.9,762.432,640.652,715.447,588.029,604.9S582.4,362.089,692.959,309.484,935.793,303.853,988.4,414.414ZM974.971,60.688,653.058,213.839l23.186,48.693c92.408-43.972,197.6-30.528,275.045,25.927,74.871,57.616,119.215,151.5,108.851,252.2l29.8,3.062a309.75,309.75,0,0,0-28.729-165.792l22.993-10.934c-48.3-101.515-143-166.3-246.733-181.183l160.67-76.441ZM1042.608,28.5l-45.977,21.88,21.859,45.989,46-21.877ZM508.594,548.25,465.67,568.675l73.283,154.031L581.9,702.272ZM410.552,696.083l75.788-36.217L450.383,583.94l-19.9,56.077Z" transform="translate(-410.553 -28.496)" opacity="1"/></svg>