<svg xmlns="http://www.w3.org/2000/svg" width="40" height="40" viewBox="0 0 45 40">
<path d="M441.493,49.16a11.87,11.87,0,1,1-15.819-5.619A11.87,11.87,0,0,1,441.493,49.16Zm-.719-18.94-17.237,8.2,1.242,2.607a14.451,14.451,0,0,1,14.727,1.388,15.081,15.081,0,0,1,5.828,13.5l1.6.164a16.586,16.586,0,0,0-1.538-8.877l1.231-.585a17.321,17.321,0,0,0-13.211-9.7l8.6-4.093ZM444.4,28.5l-2.462,1.172,1.17,2.463,2.463-1.171ZM415.8,56.327l-2.3,1.094,3.924,8.248,2.3-1.094Zm-5.25,7.916L414.61,62.3l-1.925-4.065-1.066,3Z" transform="translate(-410.552 -28.496)" fill="#ff00e2"/>
</svg>