<svg xmlns="http://www.w3.org/2000/svg" width="745.315" height="179.143" viewBox="0 0 745.315 179.143"><g transform="translate(-773.83 -106.749)"><path d="M782.27,119.472a24.81,24.81,0,0,0-3.279.158l.359-3.42c.909.095,2.074.158,3.247.158h12.354c1.236,0,2.286-.063,3.344-.158l-.359,3.42a29.223,29.223,0,0,0-3.279-.158H790.38L790,123.114h8.109a30.609,30.609,0,0,0,3.821-.19l-.38,3.612a31.511,31.511,0,0,0-3.811-.192H789.66l-.691,6.558c-.16,1.521-.557,2.281-1.458,2.724a8.42,8.42,0,0,1-3.64.57c-.791,0-2.368-.063-3.785-.158a11.44,11.44,0,0,0-.514-3.549,28.676,28.676,0,0,0,4.647.382c.951,0,1.26-.222,1.34-.981l.583-5.545h-8.459a32.218,32.218,0,0,0-3.854.192l.38-3.612a30.709,30.709,0,0,0,3.781.19h8.49l.382-3.642Zm5.249-10.134a8.151,8.151,0,0,0,.02-2.028h3.929a8.422,8.422,0,0,0-.4,2.028l-.108,1.013h8.52c1.521,0,2.54-.032,3.53-.127a16.177,16.177,0,0,0-.372,2.344l-.268,2.534a17.543,17.543,0,0,0-.117,2.342H798.8l.406-3.863H778.93l-.4,3.863H775.04a13.761,13.761,0,0,0,.408-2.374l.264-2.5a16.516,16.516,0,0,0,.117-2.344,34.594,34.594,0,0,0,3.472.127h8.109Z" transform="translate(0 0.483)" fill="#fff"/><path d="M805.692,109.374a8.008,8.008,0,0,0,.022-2h3.927a8.121,8.121,0,0,0-.4,2l-.108,1.045h8.8c1.521,0,2.506-.032,3.5-.127a16.469,16.469,0,0,0-.371,2.344l-.27,2.566a16.99,16.99,0,0,0-.123,2.342h-3.517l.428-4.053h-20.62l-.426,4.053H793.02a17.451,17.451,0,0,0,.376-2.374l.266-2.534a16.872,16.872,0,0,0,.119-2.344,34.542,34.542,0,0,0,3.471.127h8.332Zm9.782,8.8a25.15,25.15,0,0,0,3.022-.128,26.225,26.225,0,0,0-.456,3.135l-1.281,12.2a22.423,22.423,0,0,0-.143,3.167H813.1l.156-1.488H796.722l-.156,1.488h-3.517a23.485,23.485,0,0,0,.523-3.167l1.283-12.2a26.109,26.109,0,0,0,.2-3.135,24.206,24.206,0,0,0,3,.128h6.872l.117-1.11a12.909,12.909,0,0,0,.067-2.439h3.705a13.364,13.364,0,0,0-.445,2.439l-.117,1.11Zm-17.993,9.659-.436,4.15h6.429l.436-4.15Zm.7-6.653-.389,3.707h6.429l.389-3.707Zm8.622,10.8h6.779l.436-4.15h-6.779Zm.745-7.1h6.779l.389-3.707h-6.779Z" transform="translate(16.539 0.542)" fill="#fff"/><path d="M832.907,130.873a15.846,15.846,0,0,1-5.044,1.867,1.22,1.22,0,0,1-.32.032.754.754,0,0,1-.689-.38,5.642,5.642,0,0,0-2.487-2.247,22.555,22.555,0,0,0,5.6-1.711c3.236-1.553,5.018-3.739,5.385-7.222.419-3.99-1.624-7.76-7.088-8.52-1.489,9.345-4.844,15.046-8.7,17.991a4.574,4.574,0,0,1-2.813,1.139,4.106,4.106,0,0,1-2.378-.888c-2.206-1.614-3.791-4.623-3.322-9.09.756-7.189,7.326-12.732,16.07-12.732s12.778,6.208,12.149,12.2A12.254,12.254,0,0,1,832.907,130.873Zm-17.969-9.248c-.264,2.5.181,4.275,1.162,5.509a1.062,1.062,0,0,0,.867.475,1.68,1.68,0,0,0,1.032-.475c3.089-2.564,5.418-6.967,6.172-14.409C818.5,113.609,815.362,117.57,814.938,121.625Z" transform="translate(32.005 2.037)" fill="#fff"/><path d="M837.567,120.923a32.445,32.445,0,0,0-3.848.158,25.4,25.4,0,0,0,.536-3.612l.654-6.208a21.887,21.887,0,0,0,.194-3.357,27.734,27.734,0,0,0,3.752.158h15.016a29.707,29.707,0,0,0,3.819-.158,23.819,23.819,0,0,0-.536,3.61l-.628,5.954a23.5,23.5,0,0,0-.22,3.612,30.972,30.972,0,0,0-3.817-.158h-6.02l-.184,1.773h9.12a25.175,25.175,0,0,0,3.632-.188l-.371,3.515a28.134,28.134,0,0,0-3.556-.192H848.17a14.433,14.433,0,0,0,3.977,3.454,22.393,22.393,0,0,0,6.552,2.756,19,19,0,0,0-2.19,3.357,22.021,22.021,0,0,1-10.81-7.76c-.043.413-.043.413-.078,1.045-.019.477-.062.888-.1,1.236l-.289,2.756a21.512,21.512,0,0,0-.142,3.454h-3.865a17.735,17.735,0,0,0,.581-3.422l.29-2.756c.164-1.234.164-1.234.322-2.186a30.746,30.746,0,0,1-5.478,4.53,35.417,35.417,0,0,1-6.425,3.262,12.254,12.254,0,0,0-1.558-3.262,29.011,29.011,0,0,0,6.5-2.756,19.417,19.417,0,0,0,4.7-3.707h-6.368a27.55,27.55,0,0,0-3.567.192l.371-3.515a19.682,19.682,0,0,0,3.526.188h8.743l.184-1.773Zm.274-5-.227,2.154h5.735l.227-2.154Zm.512-4.878-.226,2.154h5.733l.227-2.154Zm8.416,7.032h6.3l.226-2.154H847Zm.514-4.878h6.3l.225-2.154h-6.3Z" transform="translate(47.515 0.996)" fill="#fff"/><path d="M874.478,111.588a.716.716,0,0,1,.041.222c-.021.19-.156.285-.568.285a14.77,14.77,0,0,0-8.812,2.471,10.858,10.858,0,0,0-4.9,8.014c-.451,4.275,1.145,5.954,4.232,6.746a34.509,34.509,0,0,0,6.941.855,26.254,26.254,0,0,0-1.069,3.549c-.065.316-.226.348-.512.348A35.785,35.785,0,0,1,862.5,133c-4.681-1.3-6.742-4.876-6.222-9.818a14.489,14.489,0,0,1,4.755-9.376c-4.04.761-7.814,1.395-11.48,1.933a.646.646,0,0,1-.225.032c-.223,0-.276-.095-.309-.38l-.365-3.452h.253c.38,0,.8-.063,1.214-.095,5.185-.538,10.41-1.393,15.448-2.312a74.4,74.4,0,0,1,7.554-1.045h.126c.285,0,.434.095.5.346Z" transform="translate(64.492 1.495)" fill="#fff"/><path d="M868.318,118.3a29.71,29.71,0,0,1,5.938,6.208l-3.405,2.852A31.637,31.637,0,0,0,865.2,120.9Z" transform="translate(78.747 9.955)" fill="#fff"/><path d="M891.964,109.272a10.547,10.547,0,0,0,.018-2h3.927a10.631,10.631,0,0,0-.4,2l-.073.7h7.192a31.432,31.432,0,0,0,3.945-.19l-.356,3.389a32.91,32.91,0,0,0-3.376-.127h-1.458a42.613,42.613,0,0,1-2.242,3.832H903.9a25.574,25.574,0,0,0,3.661-.158L907.2,120.1a25.4,25.4,0,0,0-3.629-.158H882.289a26.388,26.388,0,0,0-3.66.158l.355-3.389a27.731,27.731,0,0,0,3.754.158h4.022a16.563,16.563,0,0,0-1.244-3.832h-1.331a31,31,0,0,0-3.275.127l.355-3.389a27.687,27.687,0,0,0,3.687.19h6.939Zm8.157,12.51a29.2,29.2,0,0,0,3.053-.127,28.28,28.28,0,0,0-.428,2.851l-.951,9.058a21.478,21.478,0,0,0-.136,3.106h-3.643l.143-1.363H884.38l-.143,1.363h-3.644a23.709,23.709,0,0,0,.518-3.106l.951-9.058a21.542,21.542,0,0,0,.141-2.851,28.816,28.816,0,0,0,3.027.127ZM884.7,132.3h13.778l.268-2.534h-13.78Zm.558-5.321h13.778l.237-2.249H885.49Zm10.345-10.1a22.393,22.393,0,0,0,2.145-3.832h-8.524a25.966,25.966,0,0,1,1.182,3.832Z" transform="translate(90.324 0.454)" fill="#fff"/><path d="M923.054,120.9a.509.509,0,0,1,.071.253.223.223,0,0,1-.117.19,4.075,4.075,0,0,1-.9.411c-2.826.951-5.591,1.964-7.751,2.914.091,1.838.149,3.705.076,5.606h-.825c-.793,0-1.556.032-2.512.095H911c-.16,0-.18-.095-.194-.285.073-1.266.08-2.851.019-4.085-3.826,1.741-5.2,3.325-5.345,4.75-.112,1.046.527,1.616,1.843,1.741.972.1,2.391.16,4.009.16a64.965,64.965,0,0,0,7.682-.477c-.153,1.141-.372,2.344-.516,3.422-.036.348-.11.443-.4.475-2.262.127-4.556.253-7.151.253a37.883,37.883,0,0,1-4.415-.222c-3.193-.348-5.211-1.933-4.9-4.91a7.279,7.279,0,0,1,2.832-4.941,27.382,27.382,0,0,1,5.982-3.579c-.11-1.678-.454-2.312-1.689-2.312a7.683,7.683,0,0,0-4.942,2.091,32.477,32.477,0,0,0-3.977,4.087.624.624,0,0,1-.441.285.6.6,0,0,1-.331-.158l-2.087-1.838a.342.342,0,0,1-.1-.253.478.478,0,0,1,.119-.253,65.878,65.878,0,0,0,8.066-9.5c-1.892.22-3.141.346-4.511.41H900.4c-.222,0-.246-.063-.29-.251-.3-1.046-.37-2.186-.553-3.169,2.383-.063,4.586-.222,7.434-.5a32.066,32.066,0,0,0,1.722-4.024c1.186.158,2.43.38,3.361.57.186.032.274.095.262.222a.877.877,0,0,1-.127.285c-.456.728-.929,1.616-1.449,2.629a58.574,58.574,0,0,0,6.115-.92c-.14.73-.357,1.618-.452,2.5-.015.158-.038.348-.05.506a.457.457,0,0,1-.463.475c-2.257.38-4.392.791-7.112,1.046-.611.981-1.428,2.152-2.033,3.07a7.438,7.438,0,0,1,2.813-.538c2.471,0,3.852,1.331,4.308,4.213,1.789-.728,3.579-1.49,5.474-2.344a11.829,11.829,0,0,0,1.583-.886Z" transform="translate(106.056 0.454)" fill="#fff"/><path d="M925.178,125.548a14.4,14.4,0,0,0-2.361.158l.166-1.584a34.427,34.427,0,0,1-6.451,4.72,7.139,7.139,0,0,0-2.141-2.819,27.753,27.753,0,0,0,7.291-4.878h-2.6a32.461,32.461,0,0,0-3.755.188l.331-3.165a20.681,20.681,0,0,0,3.687.188h4.844c.482-.665.7-.95,1.2-1.709h-3.7a25.379,25.379,0,0,0-3.309.127l.309-2.945a25.652,25.652,0,0,0,3.282.127h4.876a14.481,14.481,0,0,0,.665-1.488h-6.526a25.291,25.291,0,0,0-3.47.158l.331-3.167a27.373,27.373,0,0,0,3.689.19H928.5a12.853,12.853,0,0,0,.508-2.439l3.685.19c-.093.285-.363,1.046-.743,2.249h8.714a28.168,28.168,0,0,0,3.757-.19l-.335,3.167a25.242,25.242,0,0,0-3.465-.158h-9.663c-.29.665-.378.886-.633,1.488h8.935a27.159,27.159,0,0,0,3.4-.127l-.309,2.945a26.118,26.118,0,0,0-3.376-.127h-3.96a15.979,15.979,0,0,0,.737,1.709h5.2a20.806,20.806,0,0,0,3.662-.188l-.333,3.165a31,31,0,0,0-3.655-.188h-3.039a19.878,19.878,0,0,0,6.839,4.562,13.228,13.228,0,0,0-2.6,3.009,27.3,27.3,0,0,1-5.582-4.467l-.153,1.458a11.693,11.693,0,0,0-2.327-.158h-2.884a17.87,17.87,0,0,1-.408,1.773h5.8a18.277,18.277,0,0,0,2.931-.158l-.32,3.04a23.209,23.209,0,0,0-2.9-.127h-4.625c2.05,1.9,5.089,2.819,10.9,3.325a15.25,15.25,0,0,0-2.095,3.359c-6.168-1.015-9.248-2.439-11.72-5.45a14.464,14.464,0,0,1-5.6,3.865,27.9,27.9,0,0,1-6.446,1.648,11.411,11.411,0,0,0-1.372-3.2c4.981-.411,8.624-1.614,10.54-3.547h-3.739a20.263,20.263,0,0,0-2.737.127l.317-3.009a19.131,19.131,0,0,0,2.679.127h4.878a13.937,13.937,0,0,0,.344-1.773Zm8.864-2.663c.445,0,.6,0,1.048-.032a13.7,13.7,0,0,1-1.245-1.709h-8.015c-.575.665-.9,1.045-1.573,1.709.473.032.758.032,1.2.032Zm-1.679-4.53a12.986,12.986,0,0,1-.611-1.709h-2.758c-.389.7-.62,1.076-1.033,1.709Z" transform="translate(121.146 0.396)" fill="#fff"/><path d="M960.166,111.517a.712.712,0,0,1,.039.222c-.015.158-.153.253-.562.253a14.809,14.809,0,0,0-8.818,2.5,10.816,10.816,0,0,0-4.9,8.014c-.451,4.275,1.147,5.954,4.238,6.714a34.345,34.345,0,0,0,6.939.855,28.176,28.176,0,0,0-1.073,3.58c-.063.317-.225.348-.51.348a31.875,31.875,0,0,1-7.328-1.11c-4.683-1.266-6.746-4.845-6.226-9.786a14.626,14.626,0,0,1,4.759-9.408c-4.044.793-7.816,1.426-11.484,1.964a.638.638,0,0,1-.224.032c-.222,0-.275-.095-.309-.38l-.365-3.452a12.322,12.322,0,0,0,1.467-.095c5.185-.54,10.414-1.424,15.452-2.344,2.743-.508,5.442-.855,7.552-1.045.382,0,.561.095.625.378Zm-3.448,8.077a15.993,15.993,0,0,0-2.182-3.327l1.281-.728a.544.544,0,0,1,.262-.095.525.525,0,0,1,.3.158,14.188,14.188,0,0,1,2.128,2.946Zm2.569-1.521a13.4,13.4,0,0,0-2.3-3.167l1.244-.7a.571.571,0,0,1,.331-.127.253.253,0,0,1,.238.127,12.176,12.176,0,0,1,2.266,2.851Z" transform="translate(138.345 1.407)" fill="#fff"/><path d="M967.908,114.439a113.132,113.132,0,0,1-2.573,16.027,24.171,24.171,0,0,1-2.35,5.8,10.515,10.515,0,0,0-2.124-2.091,8.472,8.472,0,0,0-.052,1.393H957.9l.1-.981h-3.134l-.171,1.616h-3.1c.194-.951.378-2.091.486-3.106l.49-4.688a19.477,19.477,0,0,0,.136-2.471,11.611,11.611,0,0,0,2.143.1h5.07c1.489-.032,1.489-.032,1.906-.065a17.367,17.367,0,0,0-.331,2.249l-.544,5.163a17.815,17.815,0,0,0,1.86-5.035,123.51,123.51,0,0,0,2.21-14.7,45.785,45.785,0,0,0,.415-5.764,30.323,30.323,0,0,0,3.344.127h10.077a28.635,28.635,0,0,0,3.336-.127,29.224,29.224,0,0,0-.534,3.579l-2.232,21.253a3.337,3.337,0,0,1-1.145,2.439c-.652.475-1.558.665-3.333.665-1.013,0-1.642-.032-2.9-.095a10.717,10.717,0,0,0-.352-3.294,23.7,23.7,0,0,0,3.294.317c1.108,0,1.342-.127,1.413-.791l2.208-21H968.273Zm-14.582,7a15.893,15.893,0,0,0,1.989.095h4.91a14.767,14.767,0,0,0,1.975-.095l-.311,2.945a15.488,15.488,0,0,0-1.987-.095h-4.876a16.363,16.363,0,0,0-2.009.095Zm.043-9.121a18.279,18.279,0,0,0,2.551.127h5.452a17.715,17.715,0,0,0,2.579-.127l-.344,3.262a14.334,14.334,0,0,0-2.394-.127H955.6a19.809,19.809,0,0,0-2.579.127Zm.424,4.686a15.449,15.449,0,0,0,1.989.1h4.941a14.154,14.154,0,0,0,1.942-.1l-.313,2.979a15,15,0,0,0-1.924-.1h-4.941a15.911,15.911,0,0,0-2.007.1Zm1-9.185a13.4,13.4,0,0,0,2.549.158h3.865a14.236,14.236,0,0,0,2.582-.158l-.331,3.135c-.849-.063-1.415-.093-2.555-.093h-3.865c-1.142,0-1.81.03-2.577.093Zm.3,23.977h3.23l.326-3.1h-3.231Zm19.9-2.154a10.775,10.775,0,0,0-.08,1.679,4.837,4.837,0,0,0-.694-.032,5.811,5.811,0,0,0-.659-.032c-.411-.032-.663-.032-.76-.032h-3.135l-.233,2.217h-2.69a19.142,19.142,0,0,0,.4-2.6l.618-5.893a20.94,20.94,0,0,0,.134-2.186,19.684,19.684,0,0,0,2.111.095h3.674a16.962,16.962,0,0,0,2.136-.095,17.362,17.362,0,0,0-.317,2.091Zm-4.524-13.271a16.084,16.084,0,0,0-1.914.095l.3-2.851a12.114,12.114,0,0,0,1.856.127h.95a11.336,11.336,0,0,0,.091-2.057h3.072a10.979,10.979,0,0,0-.344,2.057h1.046a11.623,11.623,0,0,0,1.946-.127l-.3,2.851a15.368,15.368,0,0,0-1.922-.095H974.2l-.235,2.249h1.268a11.166,11.166,0,0,0,1.946-.127l-.305,2.914a10.129,10.129,0,0,0-1.888-.127h-5.356a11.039,11.039,0,0,0-1.879.127l.305-2.914a10.578,10.578,0,0,0,1.854.127h1.236l.237-2.249Zm-.518,12.132h2.6l.309-2.946h-2.6Z" transform="translate(153.206 0.923)" fill="#fff"/><path d="M978.153,112.807c-1.292.253-2.067.38-4.29.728a8.669,8.669,0,0,0-.806-3.167c4.831-.475,9.875-1.743,11.944-3.04l1.739,3.04-.2.063c-.229.063-.229.063-.691.222a1.276,1.276,0,0,0-.361.127c-.955.348-3.018.981-3.93,1.234l-.411,3.9h1.869a14.744,14.744,0,0,0,2.679-.158l-.363,3.452a16.049,16.049,0,0,0-2.675-.158h-1.614a7.114,7.114,0,0,0,1.065,2.217,14.7,14.7,0,0,0,3.422,3.9,10.172,10.172,0,0,0-2.316,2.756,18.466,18.466,0,0,1-2.99-5,35.085,35.085,0,0,1-.236,4.055l-.583,5.543a26.3,26.3,0,0,0-.231,4.022h-3.739a27.7,27.7,0,0,0,.611-4.022l.553-5.258c.091-.856.194-1.521.553-3.737a25.409,25.409,0,0,1-2.7,4.623,21.8,21.8,0,0,1-2.46,2.914,9.129,9.129,0,0,0-1.648-3.009,21.447,21.447,0,0,0,4.515-5.29,21.94,21.94,0,0,0,2.1-3.705H975a19.967,19.967,0,0,0-2.934.19l.371-3.515a15.831,15.831,0,0,0,2.957.19h2.439ZM988,135.769h-3.484c.2-.981.4-2.281.547-3.705l1.99-18.941a25.712,25.712,0,0,0,.2-3.357,21.284,21.284,0,0,0,3.087.158h7.256a22.786,22.786,0,0,0,3.15-.158,25.182,25.182,0,0,0-.51,3.357l-1.959,18.624a35.037,35.037,0,0,0-.234,4.053h-3.644l.223-2.123h-6.4Zm.633-5.416h6.334l1.8-17.135h-6.334Z" transform="translate(169.372 0.498)" fill="#fff"/><path d="M1003.966,116.346c-4.12,0-7.833.063-11.815.285-.575.032-1.054.095-1.566.127-.158,0-.22-.032-.2-.222.039-1.3.106-2.534.164-3.675a10.342,10.342,0,0,0,1.668.1c3.8-.032,7.7-.032,11.946-.032.145-2,.244-3.834.291-5.48,1.2,0,2.433.063,3.6.158.344.032.454.19.432.411a.773.773,0,0,1-.168.382,2.509,2.509,0,0,0-.385,1.266c-.1.981-.2,1.931-.289,3.325h5.2c1.045,0,2.154,0,3.324.032.57,0,1.108,0,1.713-.032-.02.506-.078,1.045-.134,1.583-.076.73-.149,1.426-.257,2.154-2.9-.19-5.859-.317-9.06-.317h-1.108l-.438,4.751a7.858,7.858,0,0,1,.577,4.465,12.566,12.566,0,0,1-8.753,10.643,1.172,1.172,0,0,1-.391.095c-.156,0-.242-.095-.354-.253a5.053,5.053,0,0,0-2.782-2.152c4.489-1.426,7.245-3.517,8.4-6.368a4.174,4.174,0,0,1-2.873,1.108c-1.992,0-4.051-1.836-3.668-5.479.326-3.1,2.29-5.195,4.759-5.195a2.743,2.743,0,0,1,1.961.635Zm-2.029,4.815c-.789,0-1.331.918-1.434,1.9-.119,1.139.305,1.9,1,1.9.918,0,1.424-1.2,1.5-1.933C1003.082,122.332,1002.823,121.161,1001.936,121.161Z" transform="translate(186.643 0.601)" fill="#fff"/><path d="M1028.788,110.317a.555.555,0,0,1,.151.382c-.013.125-.125.251-.33.41a108.162,108.162,0,0,0-9.274,7.76,16.18,16.18,0,0,1,3.655-.411c5.195,0,8.194,3.42,7.71,8.014-.529,5.036-4.981,8.8-11.315,8.8-5.292,0-7.578-1.743-7.272-4.657.207-1.962,2.013-3.768,4.958-3.768,2.724,0,4.286,1.424,4.05,3.674a5.252,5.252,0,0,1-.255,1.2c3.061-.473,5.641-2.722,5.924-5.414.263-2.5-1.555-4.5-5.04-4.5a13.311,13.311,0,0,0-7.153,2.059,21.588,21.588,0,0,0-3.4,2.787,12.351,12.351,0,0,1-1.532,1.3.774.774,0,0,1-.43.19.391.391,0,0,1-.329-.19l-1.458-2.091a.482.482,0,0,1-.151-.382c.013-.125.088-.22.261-.38,4.377-3.958,9.086-8.077,14.381-12.953-2.726.316-5.67.6-7.719.823h-.158c-.318,0-.434-.095-.437-.38l.132-3.357h.443c.414,0,.764-.032,1.244-.063,3.51-.253,7.445-.635,11.143-1.173a.569.569,0,0,1,.225-.032.562.562,0,0,1,.538.317ZM1016.2,129.7a.865.865,0,0,0-.97.823c-.061.572.656,1.268,2.327,1.361C1017.71,130.429,1017.12,129.7,1016.2,129.7Z" transform="translate(201.222 1.055)" fill="#fff"/><path d="M1029.781,128.591a62.01,62.01,0,0,0,13.439-7,37.582,37.582,0,0,0,4.673-3.768,13.906,13.906,0,0,0,.724,3.642.65.65,0,0,1,.063.317.873.873,0,0,1-.343.54,63.886,63.886,0,0,1-18.25,10.294c-.626.22-1.251.441-1.648.6a1.686,1.686,0,0,1-.387.065.86.86,0,0,1-.579-.223l-1.759-1.646a.625.625,0,0,1-.279-.633c0-.032.009-.095.011-.128.2-1.011.309-2.026.43-3.165l1.584-15.078c.136-1.3.235-2.566.268-3.768l4.15.317c.406.032.581.19.553.443a1.023,1.023,0,0,1-.2.443,2.866,2.866,0,0,0-.581,1.616Z" transform="translate(216.849 1.627)" fill="#fff"/><path d="M1045.847,111.309a.417.417,0,0,1,.192-.032.215.215,0,0,1,.233.222,3.551,3.551,0,0,0,.283.918,32.161,32.161,0,0,1,2.236,8.267.365.365,0,0,1,.013.16c-.013.127-.082.19-.28.253l-3.9,1.2a7.868,7.868,0,0,0-.192-1.489,59.631,59.631,0,0,0-2.463-8.2Zm17.885.411c.218.034.434.095.681.158.28.065.389.19.374.348a.98.98,0,0,1-.305.508,2.589,2.589,0,0,0-.609,1.266c-1.27,6.051-3.281,11.022-5.74,14.506a22.434,22.434,0,0,1-8.6,7.127,11.874,11.874,0,0,1-2.5.918.435.435,0,0,1-.2.032.642.642,0,0,1-.568-.317,10.155,10.155,0,0,0-2.672-2.6,18.709,18.709,0,0,0,3.75-1.329,19.8,19.8,0,0,0,7.354-5.766c2.238-2.912,4.275-7.824,5.327-13.618.1-.635.2-1.268.264-1.9,1.182.19,2.178.348,3.29.633a15.555,15.555,0,0,0-1.335-3.579l1.445-.475a.366.366,0,0,1,.162-.032.352.352,0,0,1,.324.222,12.649,12.649,0,0,1,1.335,3.262Zm2.668-.95a14.771,14.771,0,0,0-1.473-3.484l1.316-.475a1.261,1.261,0,0,1,.292-.063c.095,0,.182.063.266.19a13.514,13.514,0,0,1,1.5,3.2Z" transform="translate(231.107 0)" fill="#fff"/><path d="M1058.836,115.743c.473.032.818.063,1.421.063,2.81.063,6.263.063,10.667.063.307-3.23.486-5.828.521-7.982,1.234.032,2.847.063,4.035.19.283.032.395.158.376.348a.75.75,0,0,1-.2.413,1.5,1.5,0,0,0-.315.886c-.169,1.9-.348,3.927-.518,6.144,3.768,0,7.012-.095,10.263-.285-.078.443-.13.918-.179,1.395-.091.855-.156,1.773-.19,2.69-3.219-.095-6.386-.095-10.38-.095-.6,5.735-2.616,9.82-5.854,12.607a15.953,15.953,0,0,1-5.655,3.167,1.482,1.482,0,0,1-.454.095.669.669,0,0,1-.564-.348,7.951,7.951,0,0,0-2.735-2.312,19.091,19.091,0,0,0,6.576-3.2c2.735-2.218,4.2-5.29,4.791-10.009-4.661.032-8.282.127-11.618.222-.285,0-.372-.063-.339-.38Z" transform="translate(245.331 0.982)" fill="#fff"/><path d="M1102.171,121.24a55.055,55.055,0,0,1-11.952,7.317,68.4,68.4,0,0,1-11.782,4.213,11.735,11.735,0,0,0-1.413.473,1.778,1.778,0,0,1-.292.065c-.158,0-.21-.1-.289-.255-.508-1.2-1-2.5-1.572-3.737a17.743,17.743,0,0,0,2.363-.475,62.99,62.99,0,0,0,11.408-3.958,59.415,59.415,0,0,0,13.484-8.33,15.011,15.011,0,0,0,.343,3.642,1.167,1.167,0,0,1,.052.443A.951.951,0,0,1,1102.171,121.24Zm-14.05-5.574a36.018,36.018,0,0,0-3.583,2.439,42.393,42.393,0,0,0-5.876-6.777c1-.791,2.281-1.806,3.508-2.629a.469.469,0,0,1,.264-.095.239.239,0,0,1,.179.095c.17.19.307.378.6.665a40.057,40.057,0,0,1,5.055,5.828c.054.095.112.158.1.222C1088.36,115.507,1088.257,115.6,1088.122,115.665Z" transform="translate(259.463 1.598)" fill="#fff"/><path d="M1116.682,110.977a.3.3,0,0,1,.1.253.493.493,0,0,1-.118.222,11.635,11.635,0,0,0-.828,1.236,65.957,65.957,0,0,1-5.936,8.866,43.846,43.846,0,0,1,7.4,7.349c.279.348.532.665.813.983a39.991,39.991,0,0,0-3.338,2.532.427.427,0,0,1-.266.128c-.1,0-.184-.065-.266-.192a42.263,42.263,0,0,0-7-7.824,32.767,32.767,0,0,1-6.686,5.131,19.278,19.278,0,0,1-4.952,2.219,1.133,1.133,0,0,1-.289.032.612.612,0,0,1-.566-.35,13.011,13.011,0,0,0-2.638-2.627,24.619,24.619,0,0,0,6.206-2.378,32.373,32.373,0,0,0,12.942-13.43l-7.26.063c-2.411.034-4.444.095-6.732.158-.512.034-1.08.034-1.594.095l.436-4.148c.536.032,1.13.095,1.732.095l15.463-.032a14.613,14.613,0,0,0,1.657-.095c.285,0,.412,0,.551.19Z" transform="translate(274.322 2.169)" fill="#fff"/><path d="M1133.7,110.829c.115.127.171.19.158.317a.927.927,0,0,1-.088.222,24.948,24.948,0,0,0-.707,2.5c-2.165,9.155-5.489,14.255-10.7,17.453a17.985,17.985,0,0,1-5.243,2.281,2.469,2.469,0,0,1-.387.063.735.735,0,0,1-.653-.411,8.516,8.516,0,0,0-2.722-2.726,17.759,17.759,0,0,0,6.777-2.406c4.591-2.692,7.576-7.57,9.207-15.266l-14.029-.034c-.283,2.692-.439,4.783-.585,6.779-.037.348-.14.411-.456.411h-1.9c-.635,0-1.266,0-1.9.032.132-.665.229-1.268.294-1.9.179-1.395.315-2.694.44-3.9.208-1.964.35-3.612.452-5.195,3.189.095,6.734.127,10.281.127,2.945,0,5.8-.063,8.44-.127.54-.032,1.02-.063,1.5-.095H1132c.095,0,.186.032.212.095Z" transform="translate(290.142 1.906)" fill="#fff"/><path d="M1148.536,114.207c1.586,0,3.206-.063,4.67-.127-.123.888-.246,1.743-.331,2.566-.063.6-.123,1.173-.149,1.711-3.567-.127-6.757-.19-10.337-.19H1140.2c-4.917.063-9.261.095-12.918.222-.283,0-.4-.095-.371-.38l.5-3.834a9.234,9.234,0,0,0,1.413.095Z" transform="translate(304.313 6.318)" fill="#fff"/><path d="M1155.516,110.386c.313.032.425.19.4.382a.675.675,0,0,1-.168.38,2.521,2.521,0,0,0-.523,1.361c-.089,1.139-.2,2.154-.291,3.072-.54,5.131-1.022,7.317-1.975,9.44a12.918,12.918,0,0,1-5.725,6.271,1.5,1.5,0,0,1-.458.127.7.7,0,0,1-.512-.253,8.838,8.838,0,0,0-3.042-2.091,10.722,10.722,0,0,0,5.724-5.036c1.122-2.247,1.67-5.035,2.223-10.292.1-.95.169-2.218.233-3.737Zm5.536,16.059a40.373,40.373,0,0,0,7.4-4.465,31.316,31.316,0,0,0,2.856-2.439,11.917,11.917,0,0,0,.292,3.832.755.755,0,0,1,.058.348.494.494,0,0,1-.188.287,42.744,42.744,0,0,1-12.03,6.872,1.169,1.169,0,0,1-.423.095.681.681,0,0,1-.454-.19l-1.635-1.331c-.2-.158-.261-.253-.236-.473,0-.034.007-.065.013-.128.115-.791.255-1.519.324-2.154.482-3.99.927-7.917,1.419-12.6.177-1.679.326-3.1.355-4.878l4.176.348c.25.032.331.158.315.317a1.037,1.037,0,0,1-.2.445,2.142,2.142,0,0,0-.484,1.3Z" transform="translate(318.376 2.125)" fill="#fff"/><path d="M1175.792,125.154a.561.561,0,0,1-.4.223.346.346,0,0,1-.3-.19,4.529,4.529,0,0,0-.324-.54,31.33,31.33,0,0,0-4.852-4.75c-.033.317-.076.728-.125,1.171-.3,2.882-.737,7.919-1.051,11.529a17.977,17.977,0,0,0-.1,1.9c-.694-.032-1.422-.032-2.151-.032s-1.426,0-2.031.032c-.255,0-.276-.095-.25-.348.074-.413.16-.92.219-1.49.564-4.148,1.041-8.393,1.48-12.573.354-3.357.7-6.653.957-10.009a17.547,17.547,0,0,0,.009-1.9,41.918,41.918,0,0,1,4.348.222c.253.032.363.16.346.318a.653.653,0,0,1-.162.348,2.282,2.282,0,0,0-.367,1.076c-.347,2.407-.607,4.878-1.021,8.8a18.655,18.655,0,0,0,1.952-2.279.425.425,0,0,1,.27-.16.236.236,0,0,1,.179.1c.173.158.38.317.553.475a42.625,42.625,0,0,1,4.98,4.75,9.037,9.037,0,0,0,.8.793A22.231,22.231,0,0,0,1175.792,125.154Zm2.2-10.672a16.452,16.452,0,0,0-1.845-3.865l1.458-.6a.507.507,0,0,1,.2-.063c.127,0,.214.063.326.222a14.677,14.677,0,0,1,1.819,3.485Zm2.789-1.2a14.869,14.869,0,0,0-1.957-3.705l1.363-.6a.955.955,0,0,1,.259-.063.387.387,0,0,1,.3.158,12.963,12.963,0,0,1,1.953,3.42Z" transform="translate(336.447 1.231)" fill="#fff"/><path d="M877.764,160.68A19.186,19.186,0,0,0,882.3,154.6l2.741,1.363a23.826,23.826,0,0,1-4.748,6.872Zm15.949-10.1a28.31,28.31,0,0,0,4-2.756,21.211,21.211,0,0,1-1.553-7.537H884.184a30.955,30.955,0,0,0-3.823.19l.352-3.327a29.919,29.919,0,0,0,3.782.19h11.622c.011-.38.011-.38.048-1.361.006-.348.013-.413,0-.92,0-.285,0-.317,0-.633h3.642a6.507,6.507,0,0,0-.164.981c-.041.38-.095,1.2-.11,1.933h3.677a15.387,15.387,0,0,0-2.005-2.057l2.245-1.141a15.173,15.173,0,0,1,2.437,2.407l-1.38.791h.886a24.585,24.585,0,0,0,3.5-.19l-.348,3.327a27.318,27.318,0,0,0-3.78-.19h-5.228a20.193,20.193,0,0,0,.806,5,18.589,18.589,0,0,0,2.839-4.118l2.921,1.426c-.257.348-.3.411-.663.886a35.361,35.361,0,0,1-3.815,4.657c.733,1.139,2.028,2.407,2.5,2.407.38,0,.916-1.2,1.508-3.515a11.839,11.839,0,0,0,2.549,1.962,11.914,11.914,0,0,1-1.59,3.391,3.36,3.36,0,0,1-2.592,1.741c-1.519,0-3.517-1.488-4.938-3.642a31.076,31.076,0,0,1-4.777,3.262,10.818,10.818,0,0,0-1.549-1.838c-5.871.983-5.871.983-11.765,1.616-.771.095-1,.127-1.638.222l-.134-3.23h.283a40.969,40.969,0,0,0,4.3-.255c3.578-.283,5.792-.568,10.108-1.234Zm-11.59-6.967a14.678,14.678,0,0,0,.091-2.091c.849.063,1.609.095,2.748.095h6.492c1.139,0,1.778-.032,2.674-.095a21.023,21.023,0,0,0-.317,2.091l-.32,3.039a16,16,0,0,0-.149,2.028c-.884-.032-1.043-.032-2.688-.032h-6.431c-1.139,0-1.808.032-2.767.1a14.967,14.967,0,0,0,.344-2.057Zm2.776,2.532h5.636l.214-2.026h-5.64Zm4.644,8.838a8.58,8.58,0,0,0-.35,1.836l-.29,2.756c-.035.348.071.538.317.6a14.2,14.2,0,0,0,3.022.19c3.262,0,4.323-.158,4.7-.726a7.155,7.155,0,0,0,.674-2.789,9.859,9.859,0,0,0,3.188,1.013c-.54,2.726-1.011,3.9-1.9,4.562a4.215,4.215,0,0,1-1.84.633c-1.125.127-3.322.253-5.033.253-3.579,0-5.3-.19-5.949-.665a1.874,1.874,0,0,1-.577-1.741l.38-3.612a10.083,10.083,0,0,0,.05-2.311Zm4.48,3.8a13.94,13.94,0,0,0-3.411-3.707l2.6-1.836a18.31,18.31,0,0,1,3.435,3.484Zm9.492,3.737a22.577,22.577,0,0,0-3.262-6.651l2.856-1.553a28.914,28.914,0,0,1,3.607,6.368Z" transform="translate(89.579 23.605)" fill="#fff"/><path d="M903.742,151.844a24.151,24.151,0,0,1-4.158,3.99,10.34,10.34,0,0,0-2.37-2.471,18.587,18.587,0,0,0,6.368-6.621,15.431,15.431,0,0,0-2.262.128c.145-.791.3-1.616.423-2.819l.665-6.334a25.419,25.419,0,0,0,.177-2.884,25.417,25.417,0,0,0,3.059.127h16.282a25.984,25.984,0,0,0,3.117-.127c-.147.793-.249,1.49-.387,2.787l-.668,6.368c-.141,1.361-.19,2.091-.207,2.882a21.439,21.439,0,0,0-3-.128h-6.368l-.248,2.346h7.416a34.491,34.491,0,0,0,3.785-.158L925.043,152a35.63,35.63,0,0,0-3.752-.158h-7.414l-.224,2.121h5.673a27.586,27.586,0,0,0,3.914-.158l-.328,3.1a30.542,30.542,0,0,0-3.91-.19h-5.638l-.25,2.376h8.522a29.757,29.757,0,0,0,3.947-.19l-.356,3.389a29.568,29.568,0,0,0-4.094-.222H900.606a27.319,27.319,0,0,0-3.854.222l.356-3.389a26.494,26.494,0,0,0,3.655.19H909.7l.25-2.376h-4.469a24.909,24.909,0,0,0-3.532.158l.32-3.04a28.244,28.244,0,0,0,3.5.127h4.469l.222-2.121Zm3.048-4.277c-.533.823-.57.886-.983,1.521h4.91l.246-2.346h-6.368Zm-1.652-3.579h15.426l.186-1.774H905.322Zm.456-4.34H921.02l.188-1.773H905.782Z" transform="translate(105.944 24.206)" fill="#fff"/><path d="M935.159,160.472a19.8,19.8,0,0,0-.536-3.325l-.9-3.452H923.579l-1.631,3.452a17.57,17.57,0,0,0-1.3,3.325h-5.195a38.74,38.74,0,0,0,2.07-3.739l8.892-18.274a20.736,20.736,0,0,0,1.348-3.2h5.513a19.108,19.108,0,0,0,.739,3.2l5.113,18.274a29.913,29.913,0,0,0,1.221,3.739Zm-4.6-19.8c-.089-.35-.145-.73-.385-1.774l-.788,1.774-4.277,9.375h7.854Z" transform="translate(122.065 24.573)" fill="#fff"/><path d="M948.4,160.517a23.749,23.749,0,0,0-1.113-5.068c-1.249-4.372-2.236-5.543-4.675-5.543h-4.72l-.681,6.461a24.526,24.526,0,0,0-.181,4.15h-4.72a25.974,25.974,0,0,0,.685-4.118l1.795-17.072a28.313,28.313,0,0,0,.179-4.118c1.326.065,2.305.1,4.046.1h7.6c4.815,0,7.321,2.407,6.882,6.587a7.248,7.248,0,0,1-2.111,4.72,7.6,7.6,0,0,1-3.711,1.836c1.929.635,2.437,1.521,4.8,8.933.192.57.8,2.281,1.158,3.135ZM944.635,146.3a4.707,4.707,0,0,0,3.128-1.141,4.184,4.184,0,0,0,1.309-2.787c.238-2.281-.935-3.452-3.534-3.452h-6.494l-.776,7.38Z" transform="translate(136.588 24.528)" fill="#fff"/><path d="M954.853,135.26a24.888,24.888,0,0,0-.682,4.087l-1.791,17.038a23.7,23.7,0,0,0-.175,4.087H947.39a25.133,25.133,0,0,0,.682-4.087l1.791-17.038a23.665,23.665,0,0,0,.177-4.087Z" transform="translate(149.588 24.573)" fill="#fff"/><path d="M973.118,160.472a19.76,19.76,0,0,0-.536-3.325l-.9-3.452H961.539l-1.631,3.452a17.587,17.587,0,0,0-1.3,3.325h-5.195a38.74,38.74,0,0,0,2.07-3.739l8.892-18.274a20.769,20.769,0,0,0,1.348-3.2h5.513a19.153,19.153,0,0,0,.739,3.2l5.113,18.274a29.877,29.877,0,0,0,1.221,3.739Zm-4.6-19.8c-.089-.35-.145-.73-.386-1.774l-.787,1.774-4.277,9.375h7.853Z" transform="translate(154.781 24.573)" fill="#fff"/><path d="M991.8,157.8a15.816,15.816,0,0,1-5.042,1.867,1.175,1.175,0,0,1-.32.034.756.756,0,0,1-.691-.38,5.636,5.636,0,0,0-2.488-2.249,22.437,22.437,0,0,0,5.6-1.711c3.238-1.553,5.02-3.737,5.386-7.22.419-3.992-1.625-7.76-7.088-8.522-1.488,9.345-4.843,15.046-8.7,17.991a4.581,4.581,0,0,1-2.811,1.139,4.117,4.117,0,0,1-2.379-.886c-2.206-1.614-3.791-4.625-3.322-9.09.758-7.191,7.327-12.733,16.068-12.733s12.778,6.208,12.151,12.2A12.249,12.249,0,0,1,991.8,157.8Zm-17.971-9.248c-.261,2.5.184,4.277,1.164,5.511a1.062,1.062,0,0,0,.868.475,1.675,1.675,0,0,0,1.031-.475c3.091-2.566,5.42-6.969,6.17-14.413C977.4,140.54,974.259,144.5,973.833,148.554Z" transform="translate(168.955 25.247)" fill="#fff"/><path d="M1000.334,147.812a15.739,15.739,0,0,0-2.331-.127h-1.015a8.868,8.868,0,0,0,.765,1.774,12.826,12.826,0,0,0,2.724,3.927,15.845,15.845,0,0,0-1.678,2.977,14.9,14.9,0,0,1-2.462-4.908c-.015,1.044-.095,2.722-.21,3.83l-.52,4.941a22.619,22.619,0,0,0-.171,3.422h-3.545a25.715,25.715,0,0,0,.516-3.422l.385-3.674c.08-.76.317-2.091.676-4.022a25.992,25.992,0,0,1-4.132,7.062,12.251,12.251,0,0,0-1.309-3.23,28.484,28.484,0,0,0,5.381-8.678h-1.331a16.042,16.042,0,0,0-2.452.127l.345-3.294a12.746,12.746,0,0,0,2.364.127h1.711l.758-7.22a20.7,20.7,0,0,0,.175-3.169h3.515a24.266,24.266,0,0,0-.486,3.135l-.763,7.254h1.078c.823,0,1.076,0,1.968-.063l.052-.477a14.578,14.578,0,0,0,3.18.192h4.117l.151-1.426h-2.852a20.743,20.743,0,0,0-2.674.127l.279-2.661a20.02,20.02,0,0,0,2.679.127h2.817l.143-1.331h-3.234a18.861,18.861,0,0,0-2.992.16l.22-2.091a42.841,42.841,0,0,1-2.316,6.366l-2.115-.981a28.95,28.95,0,0,0,2-6.366l2.435.95.093-.886a20.9,20.9,0,0,0,3.178.19h3.011a10.856,10.856,0,0,0,.067-2.154h3.485a9.12,9.12,0,0,0-.417,2.154h3.958a18.548,18.548,0,0,0,3.253-.19l-.317,3.009a20.292,20.292,0,0,0-3.055-.16h-4.12l-.138,1.331h3.45a18.151,18.151,0,0,0,2.644-.127l-.279,2.661a20.655,20.655,0,0,0-2.681-.127h-3.389l-.149,1.426h4.752a16.184,16.184,0,0,0,3.156-.192l-.32,3.042a19.98,19.98,0,0,0-3.119-.158h-12a21.261,21.261,0,0,0-2.834.127ZM992.84,136.22a43.335,43.335,0,0,1,1.073,6.366l-2.581,1.046a36.311,36.311,0,0,0-1.063-6.463Zm10.738,23.817a35.351,35.351,0,0,0-.22,3.612h-3.452a27.087,27.087,0,0,0,.536-3.612l.981-9.311c.125-1.2.156-1.806.184-2.692.754.063,1.415.095,2.525.095h9.44a20.642,20.642,0,0,0,2.865-.127,28.733,28.733,0,0,0-.469,3.262l-.957,9.09a3.27,3.27,0,0,1-.978,2.376c-.691.538-1.4.7-3.366.7-.542,0-.922,0-2.525-.093a10.579,10.579,0,0,0-.4-3.169,16.113,16.113,0,0,0,2.949.287c.981,0,1.182-.128,1.253-.793l.112-1.044h-8.332Zm8.747-3.958.149-1.426h-8.33l-.149,1.426Zm.41-3.9.147-1.393h-8.332l-.147,1.393Z" transform="translate(184.614 23.708)" fill="#fff"/><path d="M1012.038,154.786a28.093,28.093,0,0,0-3.437.156l.313-2.977a19.765,19.765,0,0,0,3.4.192h19.926a20.228,20.228,0,0,0,3.538-.192l-.313,2.977a34.321,34.321,0,0,0-3.5-.156H1030.6l2.7,1.108c-.41.57-.41.57-1.43,2.152-.3.477-.562.825-.967,1.363h.981a37.885,37.885,0,0,0,4.107-.19l-.361,3.452a32.305,32.305,0,0,0-4.066-.222h-20.62a33.36,33.36,0,0,0-4.109.222l.361-3.452a31.968,31.968,0,0,0,4.1.19h.762a13.444,13.444,0,0,0-1.521-3.61l2.513-1.013Zm3.171-17.2c-1.3,0-2.443.032-3.34.127l.333-3.167a30.907,30.907,0,0,0,3.5.19h16.884a26.875,26.875,0,0,0,3.5-.19l-.333,3.167a30.944,30.944,0,0,0-3.247-.127h-7.191l-.108,1.015h8.459a37.67,37.67,0,0,0,3.94-.127,20.652,20.652,0,0,0-.4,2.6l-.248,2.376a12.553,12.553,0,0,0-.089,2.659h-3.454l.51-4.845h-9l-.354,3.357a18.446,18.446,0,0,0-.164,3.072h-3.737a21.262,21.262,0,0,0,.478-3.072l.354-3.357h-8.615l-.51,4.845h-3.357a17,17,0,0,0,.438-2.659l.25-2.376a19.537,19.537,0,0,0,.145-2.6,36.919,36.919,0,0,0,3.915.127h8.014l.108-1.015Zm-3.763,10.769a20.936,20.936,0,0,0,3.184.158h16.156a20.936,20.936,0,0,0,3.154-.158l-.3,2.852a29.723,29.723,0,0,0-3.12-.128h-16.156a31.974,31.974,0,0,0-3.216.128Zm2.24,6.431a15.666,15.666,0,0,1,1.694,3.484l-2.655,1.139h3.992l.484-4.623Zm-.007-9.566a7.58,7.58,0,0,0,1.638.095h2.851a10.639,10.639,0,0,0,1.624-.095l-.233,2.217a7.536,7.536,0,0,0-1.6-.095H1015.1a11.744,11.744,0,0,0-1.657.095Zm.32-3.04a10.143,10.143,0,0,0,1.637.095h2.852a10.655,10.655,0,0,0,1.624-.095l-.233,2.217a10.576,10.576,0,0,0-1.607-.095h-2.851a12.025,12.025,0,0,0-1.655.095Zm6.107,17.23h2.6l.486-4.623h-2.6Zm5.736-14.189a7.59,7.59,0,0,0,1.639.095h3.23a10.346,10.346,0,0,0,1.624-.095l-.233,2.217a10.225,10.225,0,0,0-1.6-.095h-3.23a11.756,11.756,0,0,0-1.659.095Zm.32-3.04a9.9,9.9,0,0,0,1.638.095h3.23a10.654,10.654,0,0,0,1.624-.095l-.233,2.217a10.534,10.534,0,0,0-1.6-.095h-3.232a12.024,12.024,0,0,0-1.655.095Zm-.069,17.23h1.234a24.907,24.907,0,0,0,2.735-4.623h-3.485Z" transform="translate(200.827 23.957)" fill="#fff"/><path d="M1033.715,135.26a24.691,24.691,0,0,0-.682,4.087l-1.791,17.038a23.917,23.917,0,0,0-.177,4.087h-4.815a24.713,24.713,0,0,0,.681-4.087l1.791-17.038a23.638,23.638,0,0,0,.177-4.087Z" transform="translate(217.556 24.573)" fill="#fff"/><path d="M1051.978,160.472a19.789,19.789,0,0,0-.538-3.325l-.9-3.452H1040.4l-1.631,3.452a17.359,17.359,0,0,0-1.3,3.325h-5.195a39.525,39.525,0,0,0,2.072-3.739l8.891-18.274a20.773,20.773,0,0,0,1.348-3.2h5.513a19.381,19.381,0,0,0,.741,3.2l5.111,18.274a30.213,30.213,0,0,0,1.221,3.739Zm-4.6-19.8c-.089-.35-.145-.73-.384-1.774l-.789,1.774-4.279,9.375h7.855Z" transform="translate(222.749 24.573)" fill="#fff"/><path d="M1051.335,141.171a8.725,8.725,0,0,0,.91.063h.319c1.206-.032,2.607-.095,4.359-.192.54-1.8,1.128-3.484,1.547-5.066a12.277,12.277,0,0,0,.344-1.49,26.6,26.6,0,0,1,3.573.983.318.318,0,0,1,.249.348c-.011.093-.052.19-.062.285-.6,1.456-1.244,3.1-1.806,4.813,1.147-.063,2.005-.095,2.672-.095a3.961,3.961,0,0,1,2.722.635c.879.665,1.4,2.026,1.084,5.068a55.513,55.513,0,0,1-2.292,11.244c-1.264,3.579-3.106,4.813-7.446,5.129h-.095a.787.787,0,0,1-.851-.665,6.389,6.389,0,0,0-1.458-2.977,18.5,18.5,0,0,0,4.388-.475,2.051,2.051,0,0,0,1.691-1.616,58.829,58.829,0,0,0,2.452-11.877c.067-.633-.037-.855-.575-.855h-.1c-1.175.032-2.48.095-3.407.158-1.871,4.846-4.794,12.478-6.932,18.338-.087.222-.186.287-.283.287a.307.307,0,0,1-.154-.034,13,13,0,0,1-2.715-1.3c-.18-.095-.3-.19-.277-.38a.386.386,0,0,1,.054-.19c2.149-5.385,4.4-11.117,6.457-16.565-1.4.063-3.055.158-4.228.158-.443,0-.59-.127-.555-.443Zm21.829-.635a1.065,1.065,0,0,1,.259-.063.4.4,0,0,1,.3.158,30.151,30.151,0,0,1,4.113,9.978.3.3,0,0,1,.017.158.272.272,0,0,1-.181.222c-1.227.508-2.456,1.045-3.653,1.584a8.068,8.068,0,0,0-.179-1.3,32.028,32.028,0,0,0-3.83-9.375Zm2.093-.633a17.111,17.111,0,0,0-2.251-3.294l1.316-.761a.9.9,0,0,1,.229-.061.747.747,0,0,1,.3.125,13.09,13.09,0,0,1,2.165,2.914Zm2.571-1.551a14.379,14.379,0,0,0-2.366-3.1l1.251-.73a.559.559,0,0,1,.328-.127.334.334,0,0,1,.24.127,12.983,12.983,0,0,1,2.3,2.819Z" transform="translate(237.332 23.825)" fill="#fff"/><path d="M841.929,162.415h-8.11l-2.8,26.638h-1.584l2.958-28.157h9.695Z" transform="translate(47.924 46.668)" fill="#fff"/><path d="M845.733,170.581a32.377,32.377,0,0,1-5.007,6.653,8.24,8.24,0,0,0-2.314-2.694,26.417,26.417,0,0,0,6.325-9.246,18.921,18.921,0,0,0,1.007-2.947l3.517.888a5.67,5.67,0,0,1-.37.823,7.977,7.977,0,0,0-.426,1.046q-.315.709-1.108,2.374h5.165l.251-2.406a25.263,25.263,0,0,0,.179-3.8h4.055a30.589,30.589,0,0,0-.589,3.768l-.255,2.439h6.589c1.616,0,2.985-.063,4.3-.19l-.365,3.484c-1.348-.127-2.64-.19-4.161-.19h-6.684l-.613,5.828H860.7a33.029,33.029,0,0,0,3.918-.19l-.367,3.484a35.143,35.143,0,0,0-3.879-.19H854.9l-.706,6.716h7.6a35.272,35.272,0,0,0,4.426-.222l-.378,3.61a36.393,36.393,0,0,0-4.286-.222H842.171a41.45,41.45,0,0,0-4.523.222l.382-3.61a36.534,36.534,0,0,0,4.379.222h8.142l.705-6.716h-4.88a34.176,34.176,0,0,0-3.85.19l.365-3.484a28.257,28.257,0,0,0,3.781.19h4.91l.613-5.828Z" transform="translate(55.004 46.991)" fill="#fff"/><path d="M865.177,170.136a38.975,38.975,0,0,1-6.4,3.294,8.07,8.07,0,0,0-1.836-3.04,38.345,38.345,0,0,0,8.09-4.022,28.3,28.3,0,0,0,5.988-5.131h3.832a18.861,18.861,0,0,0,5.157,5.195,28.059,28.059,0,0,0,7.494,3.737,15.87,15.87,0,0,0-2.538,3.357,36.907,36.907,0,0,1-5.707-3.262l-.192,1.806a21.991,21.991,0,0,0-2.836-.128h-8.459a24.918,24.918,0,0,0-2.8.128Zm-3.722,18.245h-3.422a26.156,26.156,0,0,0,.5-3.232l.886-8.455c.132-1.236.169-1.9.194-2.726.723.063,1.32.095,2.681.095h5.29c1.3,0,2-.032,2.83-.095-.149.825-.263,1.616-.4,2.884l-.842,8.012c-.134,1.266-.177,1.964-.214,2.914h-3.323l.132-1.266h-4.117Zm.518-4.91h4.115l.67-6.368h-4.117Zm14.537-14.476h1.078a26.8,26.8,0,0,1-4.837-4.908,28.907,28.907,0,0,1-5.742,4.908h9.5Zm-4.405,8.172c.14-1.329.2-2.249.242-3.2a21.667,21.667,0,0,0,2.869.127H881.2a20.072,20.072,0,0,0,2.866-.127,29.835,29.835,0,0,0-.458,3.135l-.767,7.317c-.171,1.616-.5,2.312-1.343,2.819a6.341,6.341,0,0,1-3.135.57c-.061,0-.665,0-1.545-.032a5.791,5.791,0,0,1-.633-.03,8.028,8.028,0,0,0-.385-3.264,24.658,24.658,0,0,0,2.705.19c.762,0,.97-.19,1.043-.886l.7-6.653h-4.815l-1.065,10.136a23.284,23.284,0,0,0-.166,3.39h-3.675c.2-1.046.382-2.122.538-3.612Z" transform="translate(71.635 46.961)" fill="#fff"/><path d="M873.931,188.74h8.11l2.8-26.636h1.581l-2.959,28.157h-9.693Z" transform="translate(86.137 47.709)" fill="#fff"/><path d="M902.67,162.415h-8.11l-2.8,26.638h-1.581l2.961-28.157h9.691Z" transform="translate(100.278 46.668)" fill="#fff"/><path d="M907.91,173.175a19.447,19.447,0,0,1-5.4,6.208l-1.981-2.249a16.238,16.238,0,0,0,3.038-2.69h-3.357c.194-.951.333-1.679.417-2.471l.2-1.9a24.092,24.092,0,0,0,.16-2.692,24.122,24.122,0,0,0,3.465.158h1.775a10.759,10.759,0,0,0-.7-1.806l-2.568.032a8.4,8.4,0,0,0-.894-2.945c1.389.032,2.5.032,3.227.032,4.752,0,11.765-.411,15.679-.886a32.052,32.052,0,0,0,5.107-.983l2,2.979c-2.447.38-4.184.633-5.145.728l2.061.57c-.408.57-.408.57-1.071,1.458-.259.348-.367.475-.625.823h1.964a30.484,30.484,0,0,0,3.465-.127,21.229,21.229,0,0,0-.408,2.661l-.207,2a15.188,15.188,0,0,0-.088,2.344h-3.011a23.97,23.97,0,0,1,2.264,2.88l-2.707,2.251a50.8,50.8,0,0,0-3.48-4.878,4.2,4.2,0,0,1-1.361,2.407c-.819.57-1.91.7-5.839.7h-1.583c-.607.665-.644.7-1.214,1.3h6.938a12.248,12.248,0,0,0,2.517-.158l1.888,1.933c-.2.158-.413.317-.728.6a32.735,32.735,0,0,1-5.446,4.213,34.187,34.187,0,0,0,11.306,1.519,13.22,13.22,0,0,0-1.715,3.357c-5.694-.38-9.371-1.234-13.236-3.04-4.215,1.806-7.267,2.5-13.223,3.135a7.711,7.711,0,0,0-1.227-3.1,41.109,41.109,0,0,0,11.322-1.931,17.731,17.731,0,0,1-3-2.787,30.886,30.886,0,0,1-5.911,2.882,6.562,6.562,0,0,0-1.687-2.631c5.129-1.8,7.118-2.946,9.7-5.509-.892-.255-1.082-.54-.974-1.584l.244-2.312Zm0-.285a8.2,8.2,0,0,0,.071-1.584h3.359a9.954,9.954,0,0,0-.309,1.711l-.149,1.426c-.056.538.1.57,3.521.57a14.565,14.565,0,0,0,3.092-.19c.59-.19.76-.6,1.182-2.5a9.191,9.191,0,0,0,1.478.7l2.158-1.551A30.254,30.254,0,0,1,924.675,174l.374-3.547H915.04a14.129,14.129,0,0,1,2.484,2.281l-2.5,1.838a14.87,14.87,0,0,0-2.97-3.1l1.594-1.015h-9.661l-.419,3.992a12.792,12.792,0,0,0,1.773-2.692Zm5.63-5.353a16.041,16.041,0,0,0-.735-2.059c-.763.034-1.305.065-1.683.065-1.622.061-1.622.061-2.419.093a18.636,18.636,0,0,1,.75,1.9Zm-4.195,14a11.936,11.936,0,0,0,3.642,2.724,18.526,18.526,0,0,0,4.182-2.724Zm10.592-14a22.213,22.213,0,0,0,1.616-2.692c-1.767.222-3.363.348-5.53.477a14.593,14.593,0,0,1,.78,2.216Z" transform="translate(107.164 46.741)" fill="#fff"/><path d="M916.894,188.74H925l2.8-26.636h1.585l-2.96,28.157h-9.695Z" transform="translate(123.166 47.709)" fill="#fff"/><path d="M945.636,162.415h-8.11l-2.8,26.638h-1.584L936.1,160.9h9.7Z" transform="translate(137.307 46.668)" fill="#fff"/><path d="M946.892,165.083a34.17,34.17,0,0,0-3.916.19l.38-3.612a32.772,32.772,0,0,0,3.938.19h18.056a33.139,33.139,0,0,0,3.981-.19l-.38,3.612a32.18,32.18,0,0,0-3.845-.19H957.6l-1.13,10.767H965.4a24.2,24.2,0,0,0,3.793-.222l-.389,3.705a27.027,27.027,0,0,0-3.968-.22h-8.712l-.741,7.062a37.188,37.188,0,0,0-.208,4.085h-4.024a35.811,35.811,0,0,0,.652-4.085l.741-7.062h-8.457a31.128,31.128,0,0,0-4.012.22l.389-3.705a23.745,23.745,0,0,0,3.872.222h8.55l1.132-10.767Zm.572.886a29.6,29.6,0,0,1,3.145,7.442l-3.435,1.648a25.037,25.037,0,0,0-2.935-7.634Zm19.7,1.519a39.558,39.558,0,0,1-5.185,7.76l-2.972-1.584A26.979,26.979,0,0,0,964.059,166Z" transform="translate(143.283 47.328)" fill="#fff"/><path d="M966.177,166.665c-1.294.253-2.067.38-4.288.728a8.683,8.683,0,0,0-.808-3.167c4.832-.475,9.876-1.743,11.942-3.04l1.743,3.04-.2.063c-.229.063-.229.063-.689.222a1.24,1.24,0,0,0-.359.127c-.957.348-3.018.981-3.932,1.234l-.41,3.9h1.869a14.713,14.713,0,0,0,2.676-.158l-.363,3.452a16.03,16.03,0,0,0-2.674-.158h-1.616a7.1,7.1,0,0,0,1.065,2.216,14.713,14.713,0,0,0,3.424,3.9,10.2,10.2,0,0,0-2.318,2.756,18.431,18.431,0,0,1-2.986-5,35.612,35.612,0,0,1-.238,4.055l-.585,5.541a26.57,26.57,0,0,0-.231,4.024h-3.737a28.1,28.1,0,0,0,.612-4.024l.553-5.256c.088-.856.192-1.521.551-3.737a25.421,25.421,0,0,1-2.705,4.623,21.93,21.93,0,0,1-2.459,2.914,9.156,9.156,0,0,0-1.648-3.009,21.494,21.494,0,0,0,4.515-5.29,22.186,22.186,0,0,0,2.1-3.705h-1.966a19.919,19.919,0,0,0-2.932.19l.368-3.515a15.855,15.855,0,0,0,2.957.19h2.441Zm9.846,22.963h-3.484c.2-.981.4-2.281.545-3.705l1.992-18.941a24.97,24.97,0,0,0,.194-3.357,21.313,21.313,0,0,0,3.089.158h7.254a22.737,22.737,0,0,0,3.15-.158,25.809,25.809,0,0,0-.51,3.357L986.3,185.605a34.3,34.3,0,0,0-.236,4.053h-3.644l.223-2.123h-6.4Zm.631-5.416h6.336l1.8-17.135h-6.336Z" transform="translate(159.048 46.917)" fill="#fff"/><path d="M976.969,188.74h8.109l2.8-26.636h1.583l-2.96,28.157h-9.691Z" transform="translate(174.944 47.709)" fill="#fff"/><path d="M1018.091,174.754a.487.487,0,0,1,.069.251.226.226,0,0,1-.116.192,4.05,4.05,0,0,1-.9.411c-2.825.95-5.589,1.964-7.749,2.914.091,1.838.149,3.705.076,5.606h-.827c-.791,0-1.556.032-2.51.095h-.1c-.158,0-.179-.095-.194-.285.074-1.266.078-2.851.019-4.085-3.824,1.741-5.2,3.325-5.345,4.75-.108,1.046.527,1.614,1.843,1.743.976.095,2.393.158,4.009.158a65,65,0,0,0,7.684-.475c-.153,1.139-.374,2.342-.518,3.42-.035.348-.11.443-.4.475-2.26.127-4.554.253-7.151.253a37.791,37.791,0,0,1-4.411-.222c-3.2-.348-5.215-1.933-4.9-4.908A7.281,7.281,0,0,1,999.5,180.1a27.381,27.381,0,0,1,5.982-3.579c-.11-1.678-.454-2.312-1.687-2.312a7.679,7.679,0,0,0-4.941,2.091,32.5,32.5,0,0,0-3.979,4.087.624.624,0,0,1-.441.285.6.6,0,0,1-.331-.158l-2.085-1.838a.335.335,0,0,1-.1-.253.473.473,0,0,1,.123-.253,65.966,65.966,0,0,0,8.062-9.5c-1.892.22-3.141.348-4.509.41h-.158c-.221,0-.246-.061-.29-.251a31.287,31.287,0,0,1-.553-3.169c2.381-.063,4.584-.222,7.432-.506a31.5,31.5,0,0,0,1.722-4.022c1.186.158,2.43.38,3.361.57.188.032.276.095.262.222a.861.861,0,0,1-.125.285c-.458.73-.931,1.616-1.451,2.629a59.126,59.126,0,0,0,6.116-.918c-.142.728-.359,1.616-.452,2.5l-.052.506a.456.456,0,0,1-.464.475c-2.257.38-4.392.793-7.11,1.045-.611.983-1.43,2.154-2.033,3.072a7.427,7.427,0,0,1,2.813-.538c2.471,0,3.852,1.331,4.308,4.213,1.788-.728,3.578-1.49,5.472-2.344a11.861,11.861,0,0,0,1.584-.886Z" transform="translate(187.966 46.873)" fill="#fff"/><path d="M1033.309,170.509a11.638,11.638,0,0,0-.266,1.616,17.517,17.517,0,0,0,2.173,11.276,13.006,13.006,0,0,0,3.567,3.737,17.719,17.719,0,0,0-2.191,3.389,15.174,15.174,0,0,1-3.867-4.815,13.1,13.1,0,0,1-1.749-5.668,19.7,19.7,0,0,1-3.234,6.651,16.92,16.92,0,0,1-3.957,3.9,9.379,9.379,0,0,0-1.074-1.838,2.2,2.2,0,0,1-1.707,1.171,13.13,13.13,0,0,1-2.588.222c-.38,0-.886-.032-1.83-.063a9.553,9.553,0,0,0-.335-3.135,19.961,19.961,0,0,0,2.728.253c.793,0,1-.158,1.059-.728l.875-8.33h-8.172a25.946,25.946,0,0,0-3.055.127l.339-3.23a19.819,19.819,0,0,0,3.057.158h10.294a28.049,28.049,0,0,0,3.31-.158l-.339,3.23c-.754-.063-1.194-.095-2.3-.127l-.918,8.742a16.241,16.241,0,0,0,4.2-5.29,28.4,28.4,0,0,0,2.432-9.28,13.971,13.971,0,0,0,.1-1.806Zm-23.11,17.327a14.9,14.9,0,0,0,.432-2.6l.378-3.579a16.835,16.835,0,0,0,.125-2.407,23.374,23.374,0,0,0,2.525.1h3.169a22.419,22.419,0,0,0,2.51-.1c-.093.6-.181,1.11-.3,2.217l-.292,2.787a17.225,17.225,0,0,0-.162,2.152,14.257,14.257,0,0,0-1.892-.093h-3.515l-.16,1.521Zm20.414-19.1a26.437,26.437,0,0,1-3.9,6.083,7.817,7.817,0,0,0-2.087-2.439,2.658,2.658,0,0,1-1.327,1.772,7.028,7.028,0,0,1-3.18.413h-1.11a5.169,5.169,0,0,0-.049-1.331c-.255,0-.439-.032-.6-.032h-3.9a24.9,24.9,0,0,0-2.513.1c.134-.667.238-1.363.35-2.409l.2-1.933c.112-1.045.151-1.741.158-2.406a24.934,24.934,0,0,0,2.493.095h3.072c1.171,0,1.873-.032,2.545-.095a13.629,13.629,0,0,0-.318,2.123l-.341,3.229h.7c.73,0,.9-.125.955-.631l.618-5.891h-7.952a19.875,19.875,0,0,0-3.026.158l.337-3.2a22.787,22.787,0,0,0,3.4.19h8.87a27.3,27.3,0,0,0,3.63-.19l-.333,3.167c-.626-.063-1-.093-1.886-.125l-.633,6.018a5.139,5.139,0,0,1-.106.7,20.467,20.467,0,0,0,3.917-6.524,16.576,16.576,0,0,0,1.26-4.435l3.516.6c-.171.411-.266.728-.538,1.49-.1.378-.5,1.456-.927,2.5h4.688a10.2,10.2,0,0,0,2.584-.19l1.275,1.741a9.48,9.48,0,0,0-.668,1.836,35.185,35.185,0,0,1-3.405,7.38,11.64,11.64,0,0,0-2.5-1.8,19.974,19.974,0,0,0,2.843-5.956ZM1013.422,184h2.821l.246-2.344h-2.821Zm1.426-12.955h2.819l.238-2.281h-2.819Z" transform="translate(203.279 46.873)" fill="#fff"/><path d="M1039.3,179.86a32.374,32.374,0,0,1-4.491,6.589,2.771,2.771,0,0,1-1.968.95,2.433,2.433,0,0,1-1.892-1.013c-1.171-1.521-2.1-4.69-1.518-10.265a47.213,47.213,0,0,1,2.977-11.464c.3-.761.5-1.458.749-2.283a24.562,24.562,0,0,1,3.755,1.331c.119.063.177.127.166.222a.468.468,0,0,1-.084.192,8.908,8.908,0,0,0-.862,1.583,40.562,40.562,0,0,0-2.925,10.358,14.325,14.325,0,0,0,.166,5.353c.046.158.132.253.257.253s.266-.095.447-.318a38.981,38.981,0,0,0,3.564-5.574,6.5,6.5,0,0,0,1.6,2.819.866.866,0,0,1,.242.7A1.54,1.54,0,0,1,1039.3,179.86Zm15.249,1.711c-.009.095-.08.158-.244.222-1.106.251-2.568.6-3.956.855a32.3,32.3,0,0,0-2.6-11.086,34.625,34.625,0,0,1,3.378-.791.367.367,0,0,1,.162-.032.358.358,0,0,1,.352.251,29.818,29.818,0,0,1,2.629,9.06,10,10,0,0,0,.265,1.395A.171.171,0,0,1,1054.55,181.571Z" transform="translate(220.145 47.943)" fill="#fff"/><path d="M1063.6,170.828h-9.44c-1.249,10.071-2.824,15.107-6.131,19.445a10.36,10.36,0,0,0-2.484-2.88,19.548,19.548,0,0,0,3.6-7.76,104.9,104.9,0,0,0,2.212-14.413,27.945,27.945,0,0,0,.188-3.61c1.035.095,2.264.158,4.133.158h17.487a30,30,0,0,0,3.659-.158c-.149.823-.211,1.395-.363,2.851l-.391,3.705c-.125,1.2-.192,2.154-.225,2.757-1.005-.063-2.109-.095-3.441-.095h-5.448l-.287,2.722h4.623c1.648,0,2.855-.032,3.752-.127-.227,1.268-.38,2.407-.514,3.675l-.978,9.311a27.96,27.96,0,0,0-.231,3.705h-3.515l.136-1.3h-12.8l-.136,1.3h-3.547a27.5,27.5,0,0,0,.631-3.9l.971-9.248c.115-1.078.208-2.566.246-3.549,1.13.095,1.983.127,3.63.127h4.372Zm9.218-3.04.311-2.947h-18.308l-.311,2.947Zm-15,14.7-.357,3.389h4.564l.355-3.389Zm.633-6.019-.333,3.169h4.562l.333-3.169Zm11.808,9.408.358-3.389h-4.878l-.358,3.389Zm.657-6.239.333-3.169h-4.878l-.333,3.169Z" transform="translate(234.187 47.284)" fill="#fff"/><path d="M1070.489,187.805c-.695.888-1.143,1.236-1.713,1.236a2.084,2.084,0,0,1-.406-.063,2.241,2.241,0,0,1-1.646-1.234,23.172,23.172,0,0,1-.719-9.408,81.437,81.437,0,0,1,2.759-14.221c.16-.6.347-1.171.473-1.774,1.05.253,2.562.635,3.571.983.244.095.33.188.315.316a.863.863,0,0,1-.086.222,8.658,8.658,0,0,0-.63,1.456,63.416,63.416,0,0,0-2.828,13.366,19.689,19.689,0,0,0,.028,4.53,31.92,31.92,0,0,0,2.057-3.9,6.6,6.6,0,0,0,1.166,2.469,1.008,1.008,0,0,1,.272.728,1.55,1.55,0,0,1-.067.35A18.887,18.887,0,0,1,1070.489,187.805Zm4.517-18.559c.345.032.722.032,1.073.032,2.439,0,4.953-.095,7.693-.253.054-2.312.072-4.91.11-7.381,1.109,0,2.6,0,3.727.1.158,0,.249.063.231.222l-.005.063a4.469,4.469,0,0,0-.179.793c-.134,1.583-.18,3.832-.249,5.986,2.013-.16,4.282-.35,6.4-.6-.112.76-.224,1.519-.3,2.247-.046.445-.093.888-.1,1.3-1.6.192-4.13.413-6.174.572-.077,1.933-.194,3.357-.306,4.4-.653,6.241-2.677,9.82-5.8,12.354a.883.883,0,0,1-.562.222.771.771,0,0,1-.369-.095,11.21,11.21,0,0,0-3.095-1.013c3.422-2.409,5.526-5.861,6.113-11.436.106-1.013.22-2.69.257-4.243-2.586.19-5.385.285-7.761.285h-.128a.268.268,0,0,1-.292-.222Z" transform="translate(251.68 47.313)" fill="#fff"/><path d="M1104.235,164.174a.532.532,0,0,1,.149.38c-.013.127-.119.255-.328.413a107.168,107.168,0,0,0-9.272,7.76,16.063,16.063,0,0,1,3.655-.413c5.195,0,8.192,3.42,7.708,8.014-.529,5.036-4.979,8.8-11.315,8.8-5.29,0-7.578-1.741-7.271-4.657.2-1.964,2.011-3.768,4.956-3.768,2.724,0,4.286,1.426,4.049,3.673a5.153,5.153,0,0,1-.255,1.2c3.063-.477,5.643-2.724,5.926-5.416.261-2.5-1.555-4.5-5.04-4.5a13.323,13.323,0,0,0-7.153,2.059,21.425,21.425,0,0,0-3.4,2.787,12.048,12.048,0,0,1-1.53,1.3.754.754,0,0,1-.432.19.385.385,0,0,1-.329-.19l-1.458-2.091a.487.487,0,0,1-.151-.38c.013-.127.087-.22.262-.378,4.376-3.96,9.086-8.077,14.379-12.955-2.724.317-5.67.6-7.719.823h-.158c-.319,0-.434-.095-.436-.38l.13-3.357h.443c.414,0,.763-.032,1.244-.063,3.512-.253,7.448-.635,11.146-1.173a.611.611,0,0,1,.227-.03.561.561,0,0,1,.536.315Zm-12.586,19.384a.867.867,0,0,0-.972.823c-.06.572.657,1.268,2.327,1.363C1093.159,184.286,1092.568,183.558,1091.649,183.558Z" transform="translate(266.248 47.475)" fill="#fff"/><path d="M851.878,214.33a20.109,20.109,0,0,0-.946-4.277l-3.419-10.864a32.676,32.676,0,0,1-1.11-4.845c-.047,1.678-.192,4.275-.266,4.973L845.047,209.7a28.9,28.9,0,0,0-.234,4.625h-4.433a31.209,31.209,0,0,0,.737-4.625l1.672-15.9a31.623,31.623,0,0,0,.24-4.686h5.8a20.393,20.393,0,0,0,.776,3.768l4.778,15.711,8.053-15.711a19.563,19.563,0,0,0,1.536-3.768h5.828a33.645,33.645,0,0,0-.747,4.686l-1.67,15.9a27.526,27.526,0,0,0-.235,4.625h-4.433a30.731,30.731,0,0,0,.741-4.625l1.1-10.516c.417-2.756.682-4.37.764-4.845a42.348,42.348,0,0,1-1.942,4.623l-5.924,11.149a28.28,28.28,0,0,0-1.834,4.213Z" transform="translate(57.357 70.992)" fill="#fff"/><path d="M882.969,189.118a26.457,26.457,0,0,0-.706,4.308l-1.182,11.242c-.689,6.558-4.971,10.231-11.877,10.231-3.515,0-6.319-1.076-7.861-2.977-1.43-1.743-1.942-4.118-1.611-7.284l1.175-11.182a25.894,25.894,0,0,0,.205-4.338h4.72a25.69,25.69,0,0,0-.709,4.338l-1.177,11.182c-.447,4.275,1.531,6.524,5.807,6.524,4.249,0,6.669-2.249,7.122-6.556l1.171-11.151a25.534,25.534,0,0,0,.2-4.338Z" transform="translate(73.954 70.992)" fill="#fff"/><path d="M879.444,206.738a4.175,4.175,0,0,0,.6,2.787c.791,1.2,2.367,1.867,4.426,1.867,3.167,0,5.221-1.424,5.469-3.8a2.873,2.873,0,0,0-1.276-2.914c-.9-.506-1.087-.538-5.351-1.553a10,10,0,0,1-4.58-1.931,5.613,5.613,0,0,1-1.9-5.131c.462-4.4,4.31-7.252,9.76-7.252,3.61,0,6.215,1.108,7.55,3.2a7.729,7.729,0,0,1,1.164,3.674l-4.586.538a3.691,3.691,0,0,0-.713-2.249,4.521,4.521,0,0,0-3.8-1.519c-2.755,0-4.77,1.395-4.988,3.452a2.66,2.66,0,0,0,1.853,2.882,25,25,0,0,0,4.346,1.141,12.526,12.526,0,0,1,4.962,1.931,5.627,5.627,0,0,1,2.054,5.448,8.206,8.206,0,0,1-2.56,5.385c-1.849,1.616-4.433,2.407-7.824,2.407a11.8,11.8,0,0,1-6.478-1.648,6.444,6.444,0,0,1-2.409-3.61,10.257,10.257,0,0,1-.326-2.629Z" transform="translate(87.052 70.729)" fill="#fff"/><path d="M896.374,189.118a24.474,24.474,0,0,0-.683,4.087L893.9,210.243a23.972,23.972,0,0,0-.179,4.087h-4.815a24.727,24.727,0,0,0,.683-4.087l1.789-17.038a23.686,23.686,0,0,0,.179-4.087Z" transform="translate(99.184 70.992)" fill="#fff"/><path d="M917.987,206.867a13.735,13.735,0,0,1-2.62,4.752c-2.039,2.218-5.211,3.452-9.013,3.452-3.452,0-6.1-1.045-7.82-3.04-1.975-2.312-2.834-5.891-2.407-9.946a15.974,15.974,0,0,1,4.781-10.231,12.16,12.16,0,0,1,8.235-3.007,10.377,10.377,0,0,1,5.923,1.521,8.3,8.3,0,0,1,2.994,3.452,10.208,10.208,0,0,1,.728,2.437l-4.511,1.015a5.858,5.858,0,0,0-1.074-2.724,5.149,5.149,0,0,0-4.42-1.964c-4.5,0-7.591,3.515-8.2,9.343-.609,5.8,1.8,9.406,6.232,9.406a6.762,6.762,0,0,0,5.381-2.342,7.233,7.233,0,0,0,1.35-2.914Z" transform="translate(105.313 70.758)" fill="#fff"/><path d="M929.568,214.33a19.424,19.424,0,0,0-.538-3.325l-.9-3.452H917.99L916.361,211a17.28,17.28,0,0,0-1.3,3.325h-5.2a39.677,39.677,0,0,0,2.074-3.737l8.888-18.276a20.8,20.8,0,0,0,1.35-3.2h5.511a19.167,19.167,0,0,0,.741,3.2l5.113,18.276a29.686,29.686,0,0,0,1.221,3.737Zm-4.6-19.8c-.091-.348-.147-.73-.385-1.774-.663,1.489-.663,1.489-.787,1.774l-4.279,9.375h7.855Z" transform="translate(117.246 70.992)" fill="#fff"/><path d="M944.594,214.551a29.987,29.987,0,0,0-4.476-.222h-9.375c-1.774,0-2.888.032-4.033.093a25.92,25.92,0,0,0,.691-4.18l1.73-16.439a31.22,31.22,0,0,0,.24-4.686h4.783a29.554,29.554,0,0,0-.745,4.655L931.652,210.5h8.87a33.974,33.974,0,0,0,4.522-.223Z" transform="translate(131.765 70.992)" fill="#fff"/><path d="M965.7,214.579a20.124,20.124,0,0,0-1.437-2.028l-.45-.538a15.18,15.18,0,0,1-4.007,2.281,13.671,13.671,0,0,1-4.742.823c-2.851,0-5.023-.76-6.329-2.217a6.327,6.327,0,0,1-1.383-4.908,7.717,7.717,0,0,1,2.616-5,14.042,14.042,0,0,1,4.269-2.629l-.845-1.015a5.968,5.968,0,0,1-1.633-4.655c.376-3.58,3.532-5.859,8.094-5.859,4.4,0,7.084,2.216,6.727,5.606a6.337,6.337,0,0,1-3.072,4.813,23.712,23.712,0,0,1-3.614,1.838l5.072,5.7a17.837,17.837,0,0,0,3.746-6.4l3.094,1.583c-1.882,3.739-2.782,5.068-4.807,7.159l2.067,2.344c.909,1.013,1.558,1.741,2.875,3.1Zm-9.507-11.75a11.844,11.844,0,0,0-3.076,1.836,4.429,4.429,0,0,0-1.61,2.979c-.259,2.469,1.409,4.053,4.262,4.053a9.635,9.635,0,0,0,6.062-2.217Zm1.667-4.087a18.034,18.034,0,0,0,3.094-1.426,3.26,3.26,0,0,0,1.657-2.5c.18-1.711-1.011-2.757-3.068-2.757-2.091,0-3.5,1.078-3.685,2.821a3.252,3.252,0,0,0,1.041,2.756Z" transform="translate(149.514 70.743)" fill="#fff"/><path d="M989.647,214.551a29.949,29.949,0,0,0-4.472-.222H975.8c-1.774,0-2.888.032-4.035.093a26.363,26.363,0,0,0,.693-4.18l1.726-16.439a30.723,30.723,0,0,0,.24-4.686h4.785a29.8,29.8,0,0,0-.745,4.655L976.707,210.5h8.87a33.915,33.915,0,0,0,4.521-.223Z" transform="translate(170.596 70.992)" fill="#fff"/><path d="M992.286,189.118a24.477,24.477,0,0,0-.681,4.087l-1.793,17.038a23.706,23.706,0,0,0-.175,4.087h-4.815a25.121,25.121,0,0,0,.681-4.087l1.791-17.038a23.684,23.684,0,0,0,.177-4.087Z" transform="translate(181.85 70.992)" fill="#fff"/><path d="M999,214.33a21.774,21.774,0,0,0-.68-3.167l-4.859-18.276a28.2,28.2,0,0,0-1.186-3.768H997.5a19.352,19.352,0,0,0,.508,3.325l3.612,15.647c.119.38.365,1.646.508,2.407.386-.951.73-1.838.981-2.407l6.9-15.647a20.029,20.029,0,0,0,1.2-3.325h5.228a28.165,28.165,0,0,0-1.981,3.768l-8.7,18.276a20.932,20.932,0,0,0-1.316,3.167Z" transform="translate(188.27 70.992)" fill="#fff"/><path d="M1025.274,214.654a26.547,26.547,0,0,0-4.065-.222h-9.883c-1.9,0-2.758.032-4.033.093a26.58,26.58,0,0,0,.693-4.18l1.8-17.135a28.228,28.228,0,0,0,.177-4.087c1.26.065,2.081.1,4.014.1h9.564a34.854,34.854,0,0,0,4.111-.222l-.441,4.18a27.87,27.87,0,0,0-4.061-.222h-9.125l-.685,6.524h7.7a33.148,33.148,0,0,0,4.139-.222l-.434,4.15a24.423,24.423,0,0,0-4.1-.222h-7.731l-.784,7.475h9.5a30.523,30.523,0,0,0,4.077-.223Z" transform="translate(201.218 70.89)" fill="#fff"/><path d="M1033.281,206.738a4.178,4.178,0,0,0,.594,2.787c.793,1.2,2.368,1.867,4.428,1.867,3.167,0,5.219-1.424,5.468-3.8a2.871,2.871,0,0,0-1.277-2.914c-.9-.506-1.083-.538-5.349-1.553a10.007,10.007,0,0,1-4.58-1.931,5.618,5.618,0,0,1-1.9-5.131c.464-4.4,4.312-7.252,9.76-7.252,3.612,0,6.219,1.108,7.552,3.2a7.7,7.7,0,0,1,1.164,3.674l-4.586.538a3.678,3.678,0,0,0-.713-2.249,4.521,4.521,0,0,0-3.8-1.519c-2.756,0-4.77,1.395-4.986,3.452a2.655,2.655,0,0,0,1.851,2.882,24.981,24.981,0,0,0,4.345,1.141,12.517,12.517,0,0,1,4.96,1.931,5.628,5.628,0,0,1,2.057,5.448,8.216,8.216,0,0,1-2.562,5.385c-1.849,1.616-4.433,2.407-7.824,2.407a11.81,11.81,0,0,1-6.479-1.648,6.452,6.452,0,0,1-2.407-3.61,10.178,10.178,0,0,1-.326-2.629Z" transform="translate(219.641 70.729)" fill="#fff"/><path d="M1067.064,189.118a25.664,25.664,0,0,0-.683,4.053l-1.791,17.072a24.54,24.54,0,0,0-.177,4.087h-4.72a25.081,25.081,0,0,0,.683-4.087l.75-7.157h-12.735l-.75,7.157a24.686,24.686,0,0,0-.177,4.087h-4.72a24.728,24.728,0,0,0,.683-4.087l1.791-17.038a24.238,24.238,0,0,0,.177-4.087h4.72a26.591,26.591,0,0,0-.68,4.053l-.644,6.114h12.736l.64-6.081a24.166,24.166,0,0,0,.177-4.087Z" transform="translate(231.772 70.992)" fill="#fff"/><path d="M1080.219,192.013c2.069,2.312,2.942,5.764,2.51,9.881-.843,8.014-6.045,13.208-13.238,13.208s-11.27-5.163-10.425-13.208a15.094,15.094,0,0,1,4.649-9.881,12.126,12.126,0,0,1,8.505-3.167C1075.7,188.846,1078.29,189.859,1080.219,192.013Zm-1.925,9.881c.335-3.2-.283-5.764-1.728-7.379a6.14,6.14,0,0,0-4.675-1.933c-4.561,0-7.823,3.61-8.425,9.343-.333,3.167.305,5.828,1.78,7.475a6.163,6.163,0,0,0,4.7,1.931C1074.482,211.332,1077.681,207.722,1078.294,201.894Z" transform="translate(245.745 70.758)" fill="#fff"/><path d="M1093.763,214.33a30.484,30.484,0,0,0-.425-3.2l-2.152-11.78a38.161,38.161,0,0,1-.492-4.055c-.538,1.8-.985,3.04-1.376,4.055l-4.6,11.78a29.434,29.434,0,0,0-1.065,3.2h-4.213a31.79,31.79,0,0,0-.51-3.262l-3.126-18.181a29.331,29.331,0,0,0-.87-3.768H1080a17.008,17.008,0,0,0,.21,3.42l1.678,12.069c.119.981.3,2.6.371,3.7.62-1.962.935-2.849,1.281-3.737l4.8-12.225a21.727,21.727,0,0,0,1.035-3.23h3.9a21.406,21.406,0,0,0,.4,3.167l2.266,12.2c.134.823.227,1.456.484,3.83.235-.726.235-.726.54-1.836.151-.506.532-1.743.627-2.026l4.2-11.942a17.817,17.817,0,0,0,.9-3.389h5.07a32.3,32.3,0,0,0-1.633,3.768l-6.976,18.15c-.313.886-.533,1.456-.625,1.741a8.543,8.543,0,0,0-.514,1.553Z" transform="translate(259.519 70.992)" fill="#fff"/></g></svg>