<?xml version="1.0" encoding="utf-8"?>
<!-- Generator: Adobe Illustrator 25.2.1, SVG Export Plug-In . SVG Version: 6.00 Build 0)  -->
<svg version="1.1" id="レイヤー_2" xmlns="http://www.w3.org/2000/svg" xmlns:xlink="http://www.w3.org/1999/xlink" x="0px"
	 y="0px" viewBox="0 0 52.9 63.3" style="enable-background:new 0 0 52.9 63.3;" xml:space="preserve">
<style type="text/css">
	.st0{fill:#FFFFFF;}
</style>
<path id="パス_741" d="M9.2,58.2c0,0.4-0.2,0.7-0.4,1c-0.4,0.5-1,0.8-1.8,0.8c-1.6,0-2.5-1.3-2.5-3.3c0-2.1,1-3.3,2.5-3.3
	c0.6,0,1.2,0.2,1.6,0.7c0.2,0.3,0.3,0.5,0.5,1l1.6-0.4c-0.1-0.3-0.2-0.6-0.3-0.9c-0.3-0.5-0.7-0.9-1.2-1.2c-0.6-0.4-1.4-0.6-2.1-0.5
	c-1.1,0-2.1,0.4-2.8,1.1c-0.8,0.8-1.3,2.1-1.3,3.6c0,1.4,0.4,2.7,1.2,3.5C4.8,61,5.8,61.4,7,61.4c1.3,0,2.4-0.4,3.1-1.2
	c0.3-0.4,0.5-0.9,0.7-1.7L9.2,58.2z M15.1,61.4c2,0,3.3-1.4,3.3-3.4c0-2.1-1.3-3.4-3.3-3.4c-2,0-3.3,1.3-3.3,3.4
	C11.7,60.1,13,61.4,15.1,61.4z M15,55.8c1.2,0,1.9,0.8,1.9,2.3c0,1.4-0.7,2.2-1.9,2.2s-1.9-0.8-1.9-2.2C13.2,56.6,13.9,55.8,15,55.8
	z M21.1,61.2c-0.1-0.5-0.1-1-0.1-1.5v-2.3c0.5-1.1,1.2-1.7,2-1.7c0.4,0,0.7,0.1,0.9,0.5c0.1,0.2,0.2,0.5,0.2,1v2.5
	c0,0.5,0,1-0.1,1.5h1.6c-0.1-0.5-0.1-1-0.1-1.5v-2.7c0-0.7-0.1-1.2-0.4-1.6c-0.4-0.5-1-0.8-1.9-0.8c-1,0-1.6,0.3-2.3,1.2
	c0-0.2,0-0.3,0-0.5v-0.6h-1.5c0.1,0.5,0.1,1,0.1,1.5v3.5c0,0.5,0,1-0.1,1.5H21.1z M27.7,53.1c0.1,0.5,0.1,0.9,0.1,1.4v0.3h-0.4
	c-0.3,0-0.7,0-1-0.1V56c0.3-0.1,0.7-0.1,1-0.1h0.4v3.8c0,1.2,0.5,1.6,1.8,1.6c0.5,0,1-0.1,1.4-0.2l-0.2-1.2
	c-0.2,0.2-0.5,0.2-0.8,0.2c-0.5,0-0.7-0.2-0.7-0.7V56h0.5c0.4,0,0.7,0,1.1,0.1v-1.3c-0.4,0.1-0.8,0.1-1.1,0.1h-0.5v-0.3
	c0-0.5,0-0.9,0.1-1.4L27.7,53.1z M36.1,61.2h1.5c-0.1-0.5-0.1-0.9-0.1-1.4v-3c0-0.8-0.1-1.2-0.5-1.5c-0.5-0.5-1.1-0.7-2.2-0.7
	c-1,0-1.6,0.2-2.1,0.6c-0.4,0.3-0.6,0.6-0.9,1.2l1.4,0.3c0.1-0.4,0.2-0.6,0.4-0.7c0.3-0.2,0.8-0.3,1.2-0.3c0.8,0,1.3,0.3,1.3,1v0.6
	c-1.6,0-2.4,0.1-3.2,0.4c-0.7,0.3-1.2,1-1.3,1.8c0,1.2,0.8,1.9,2.2,1.9c0.4,0,0.7,0,1-0.1c0.5-0.1,0.9-0.4,1.2-0.7V61.2z M36.1,58.7
	c0,0.4-0.1,0.7-0.4,1c-0.4,0.4-1,0.6-1.6,0.6c-0.6,0-1-0.3-1-0.8c0-0.9,0.8-1.2,3-1.3V58.7z M44.8,56.6c-0.1-0.3-0.2-0.6-0.4-0.8
	c-0.5-0.8-1.4-1.2-2.5-1.2c-0.9,0-1.7,0.3-2.2,0.8c-0.6,0.6-1,1.5-1,2.6c0,2.1,1.3,3.4,3.2,3.4c1.1,0,1.9-0.4,2.5-1.1
	c0.2-0.3,0.4-0.6,0.5-1l-1.4-0.3c0,0.2-0.1,0.4-0.2,0.6c-0.3,0.4-0.8,0.6-1.3,0.6c-1.1,0-1.8-0.9-1.8-2.3c0-1.4,0.7-2.2,1.8-2.2
	c0.4,0,0.9,0.2,1.2,0.5c0.2,0.2,0.3,0.4,0.3,0.7L44.8,56.6z M46.7,53.1c0.1,0.5,0.1,0.9,0.1,1.4v0.3h-0.4c-0.3,0-0.7,0-1-0.1V56
	c0.3-0.1,0.7-0.1,1-0.1h0.4v3.8c0,1.2,0.5,1.6,1.8,1.6c0.5,0,1-0.1,1.4-0.2l-0.2-1.2c-0.2,0.2-0.5,0.2-0.8,0.2
	c-0.5,0-0.7-0.2-0.7-0.7V56h0.5c0.4,0,0.7,0,1.1,0.1v-1.3c-0.4,0.1-0.8,0.1-1.1,0.1h-0.5v-0.3c0-0.5,0-0.9,0.1-1.4L46.7,53.1z"/>
<g>
	<rect x="2.9" y="7.7" class="st0" width="47" height="31.9"/>
	<path d="M48,9.7v27.9h-43V9.7H48 M50,7.7h-47v31.9h47V7.7L50,7.7z"/>
</g>
<path d="M26.5,30c-0.2,0-0.5-0.1-0.7-0.3L3.2,9.5L4.6,8l21.9,19.7L48.3,8l1.3,1.5L27.2,29.8C27,29.9,26.7,30,26.5,30z"/>
</svg>
