<svg xmlns="http://www.w3.org/2000/svg" width="52.877" height="63.3" viewBox="0 0 52.877 63.3"><g transform="translate(-1763.778 -26.347)"><g transform="translate(1767.079 26.347)"><path d="M785.13,388.884A23.407,23.407,0,1,1,808.523,365.5,23.429,23.429,0,0,1,785.13,388.884Zm-21.513-24.428h8.065a37.392,37.392,0,0,1,1.984-11.232l-3.947-2.782A21.536,21.536,0,0,0,763.617,364.456Zm32.973-11.231a37.364,37.364,0,0,1,1.99,11.235h8.066a21.535,21.535,0,0,0-6.107-14.015Zm-32.975,13.247a21.5,21.5,0,0,0,6.108,14.032l3.945-2.782a34.485,34.485,0,0,1-1.919-11.25Zm34.965.016a37.41,37.41,0,0,1-1.988,11.232l3.949,2.788a21.537,21.537,0,0,0,6.1-14.02Zm-24.973-2.032h10.479v-8.342a23.777,23.777,0,0,1-8.55-2.03A35.667,35.667,0,0,0,773.606,364.456Zm21.113-10.381a23.719,23.719,0,0,1-8.575,2.047v8.336h10.445A33.069,33.069,0,0,0,794.72,354.075Zm-21.055,12.408a32.952,32.952,0,0,0,1.875,10.383,23.755,23.755,0,0,1,8.577-2.035v-8.348Zm21.012,10.367a30.062,30.062,0,0,0,1.859-10.351h-10.39v8.335A23.584,23.584,0,0,1,794.677,376.85Zm-.64-24.525c-1.766-3.47-3.77-6.548-7.885-7.553v9.455A21.059,21.059,0,0,0,794.037,352.325Zm-9.936-7.447c-2.751.114-6.709,3.916-7.8,7.485a20.952,20.952,0,0,0,7.8,1.863Zm-.031,41.17V376.72a21.073,21.073,0,0,0-7.779,1.872C777.591,382.327,781.585,386.138,784.071,386.049Zm9.966-7.431a20.98,20.98,0,0,0-7.874-1.888v9.441C790.283,385.161,792.278,382.083,794.037,378.617Zm1.856.888a21.773,21.773,0,0,1-4.138,6.4,20.6,20.6,0,0,0,7.385-4.1Zm-24.773,2.3a20.529,20.529,0,0,0,7.381,4.1,21.926,21.926,0,0,1-4.144-6.4Zm3.244-30.365a21.987,21.987,0,0,1,4.124-6.395,20.516,20.516,0,0,0-7.37,4.1Zm17.42-6.383a22.21,22.21,0,0,1,4.118,6.384l3.236-2.307A20.517,20.517,0,0,0,791.784,345.059Z" transform="translate(-761.734 -342.07)"/><path d="M777.689,427.039a21.536,21.536,0,0,1,6.1-14.014l3.947,2.782a37.39,37.39,0,0,0-1.984,11.232Z" transform="translate(-775.806 -404.652)" fill="#fff"/><path d="M1057.123,415.828l3.949-2.78a21.534,21.534,0,0,1,6.107,14.015h-8.066A37.366,37.366,0,0,0,1057.123,415.828Z" transform="translate(-1022.268 -404.673)" fill="#fff"/><path d="M777.671,548.871H785.8a34.487,34.487,0,0,0,1.919,11.25l-3.945,2.782A21.5,21.5,0,0,1,777.671,548.871Z" transform="translate(-775.79 -524.469)" fill="#fff"/><path d="M1059.126,549.009h8.06a21.536,21.536,0,0,1-6.1,14.02l-3.949-2.788A37.406,37.406,0,0,0,1059.126,549.009Z" transform="translate(-1022.281 -524.591)" fill="#fff"/><path d="M862.35,454.257a35.665,35.665,0,0,1,1.929-10.372,23.776,23.776,0,0,0,8.55,2.03v8.342Z" transform="translate(-850.478 -431.871)" fill="#fff"/><path d="M977.188,443.811a33.065,33.065,0,0,1,1.871,10.383H968.614v-8.336A23.719,23.719,0,0,0,977.188,443.811Z" transform="translate(-944.203 -431.806)" fill="#fff"/><path d="M862.846,548.968H873.3v8.348a23.756,23.756,0,0,0-8.577,2.035A32.952,32.952,0,0,1,862.846,548.968Z" transform="translate(-850.915 -524.555)" fill="#fff"/><path d="M977.155,559.453a23.585,23.585,0,0,0-8.531-2.016V549.1h10.39A30.069,30.069,0,0,1,977.155,559.453Z" transform="translate(-944.211 -524.673)" fill="#fff"/><path d="M976.562,372.524a21.06,21.06,0,0,1-7.885,1.9v-9.455C972.792,365.976,974.8,369.054,976.562,372.524Z" transform="translate(-944.258 -362.269)" fill="#fff"/><path d="M893.012,365.87v9.348a20.952,20.952,0,0,1-7.8-1.863C886.3,369.786,890.261,365.984,893.012,365.87Z" transform="translate(-870.644 -363.062)" fill="#fff"/><path d="M892.891,645.048c-2.486.089-6.479-3.722-7.779-7.457a21.073,21.073,0,0,1,7.779-1.872C892.891,638.851,892.891,641.949,892.891,645.048Z" transform="translate(-870.554 -601.069)" fill="#fff"/><path d="M976.639,637.689c-1.758,3.465-3.754,6.544-7.874,7.553V635.8A20.979,20.979,0,0,1,976.639,637.689Z" transform="translate(-944.336 -601.141)" fill="#fff"/><path d="M1020.294,659.324l3.248,2.3a20.605,20.605,0,0,1-7.385,4.1A21.773,21.773,0,0,0,1020.294,659.324Z" transform="translate(-986.135 -621.889)" fill="#fff"/><path d="M841.279,661.645l3.237-2.3a21.928,21.928,0,0,0,4.144,6.4A20.528,20.528,0,0,1,841.279,661.645Z" transform="translate(-831.893 -621.908)" fill="#fff"/><path d="M844.506,373.7l-3.246-2.3a20.516,20.516,0,0,1,7.37-4.1A21.986,21.986,0,0,0,844.506,373.7Z" transform="translate(-831.876 -364.326)" fill="#fff"/><path d="M1016.4,367.4a20.516,20.516,0,0,1,7.354,4.076l-3.236,2.307A22.212,22.212,0,0,0,1016.4,367.4Z" transform="translate(-986.347 -364.414)" fill="#fff"/></g><g transform="translate(1765 77.305)"><path d="M-26.3-8.624a9.919,9.919,0,0,1,.077,1.43v5.9A10.651,10.651,0,0,1-26.3.132h1.6a11.33,11.33,0,0,1-.077-1.43V-7.183a10.19,10.19,0,0,1,.077-1.441ZM-19.14.132h1.485a8.847,8.847,0,0,1-.088-1.375V-4.2A1.847,1.847,0,0,0-18.26-5.72a2.86,2.86,0,0,0-2.167-.649,3.293,3.293,0,0,0-2.1.561A2.3,2.3,0,0,0-23.4-4.587l1.408.253a1.2,1.2,0,0,1,.44-.7A1.984,1.984,0,0,1-20.4-5.357c.836,0,1.265.33,1.265.968v.561a8.321,8.321,0,0,0-3.1.44,1.951,1.951,0,0,0-1.243,1.782c0,1.155.814,1.848,2.156,1.848A3.892,3.892,0,0,0-20.306.11,2.385,2.385,0,0,0-19.14-.583Zm0-2.453a1.311,1.311,0,0,1-.4.968,2.234,2.234,0,0,1-1.529.583c-.616,0-1-.319-1-.836,0-.858.825-1.221,2.926-1.265ZM-14.762.132A9.787,9.787,0,0,1-14.85-1.3V-3.52c.484-1.089,1.133-1.639,1.925-1.639A1.035,1.035,0,0,1-12-4.708a1.807,1.807,0,0,1,.187.968V-1.3a11.69,11.69,0,0,1-.077,1.43h1.6a8.693,8.693,0,0,1-.088-1.43v-2.64a2.446,2.446,0,0,0-.374-1.54,2.173,2.173,0,0,0-1.87-.814,2.515,2.515,0,0,0-2.244,1.166A4.3,4.3,0,0,0-14.85-5.6v-.583h-1.5a9.041,9.041,0,0,1,.088,1.43V-1.3a9.13,9.13,0,0,1-.088,1.43Zm5.687,1.012A3.191,3.191,0,0,0-6.314,2.288a4.153,4.153,0,0,0,2.6-.7,3.288,3.288,0,0,0,.924-2.706V-4.807a10.219,10.219,0,0,1,.077-1.375H-4.191v.506a2.646,2.646,0,0,0,.022.363,2.32,2.32,0,0,0-2.1-.968A2.851,2.851,0,0,0-9.207-3.146,2.785,2.785,0,0,0-6.336-.066a2.5,2.5,0,0,0,2.156-1A3,3,0,0,1-4.466.4a1.977,1.977,0,0,1-1.8.825,1.863,1.863,0,0,1-1.7-.836Zm1.309-4.257c0-1.309.682-2.134,1.782-2.134a1.662,1.662,0,0,1,1.067.4,2.028,2.028,0,0,1,.66,1.628,2.33,2.33,0,0,1-.308,1.254A1.841,1.841,0,0,1-6.094-1.1,1.686,1.686,0,0,1-7.26-1.6,2.123,2.123,0,0,1-7.766-3.113ZM3.113-6.182A11.605,11.605,0,0,1,3.2-4.752V-2.53C2.706-1.441,2.079-.9,1.287-.9a1.369,1.369,0,0,1-.605-.154A1.343,1.343,0,0,1,.176-2.31V-4.752a9.845,9.845,0,0,1,.077-1.43h-1.6a10.111,10.111,0,0,1,.088,1.43v2.783a2.053,2.053,0,0,0,.891,1.9A2.4,2.4,0,0,0,.957.253,2.418,2.418,0,0,0,3.212-.924C3.2-.649,3.2-.616,3.2-.451V.132H4.7A9.041,9.041,0,0,1,4.609-1.3V-4.752A7.964,7.964,0,0,1,4.7-6.182ZM10.252.132h1.485a8.847,8.847,0,0,1-.088-1.375V-4.2a1.847,1.847,0,0,0-.517-1.518,2.86,2.86,0,0,0-2.167-.649,3.293,3.293,0,0,0-2.1.561A2.3,2.3,0,0,0,6-4.587L7.4-4.334a1.2,1.2,0,0,1,.44-.7,1.984,1.984,0,0,1,1.144-.319c.836,0,1.265.33,1.265.968v.561a8.321,8.321,0,0,0-3.1.44A1.951,1.951,0,0,0,5.907-1.606c0,1.155.814,1.848,2.156,1.848A3.892,3.892,0,0,0,9.086.11a2.385,2.385,0,0,0,1.166-.693Zm0-2.453a1.311,1.311,0,0,1-.4.968A2.234,2.234,0,0,1,8.327-.77c-.616,0-1-.319-1-.836,0-.858.825-1.221,2.926-1.265Zm2.662,3.465a3.191,3.191,0,0,0,2.761,1.144,4.153,4.153,0,0,0,2.6-.7,3.288,3.288,0,0,0,.924-2.706V-4.807a10.219,10.219,0,0,1,.077-1.375H17.8v.506a2.646,2.646,0,0,0,.022.363,2.32,2.32,0,0,0-2.1-.968,2.851,2.851,0,0,0-2.937,3.135,2.785,2.785,0,0,0,2.871,3.08,2.5,2.5,0,0,0,2.156-1A3,3,0,0,1,17.523.4a1.977,1.977,0,0,1-1.8.825,1.863,1.863,0,0,1-1.7-.836Zm1.309-4.257c0-1.309.682-2.134,1.782-2.134a1.662,1.662,0,0,1,1.067.4,2.028,2.028,0,0,1,.66,1.628,2.33,2.33,0,0,1-.308,1.254A1.841,1.841,0,0,1,15.9-1.1a1.686,1.686,0,0,1-1.166-.5A2.123,2.123,0,0,1,14.223-3.113Zm12.353.451c-.022-.253-.022-.286-.022-.308a4.522,4.522,0,0,0-.319-1.672A2.794,2.794,0,0,0,23.5-6.38a3.044,3.044,0,0,0-3.1,3.366A3.047,3.047,0,0,0,23.573.341a3.124,3.124,0,0,0,2.266-.847,3.091,3.091,0,0,0,.671-1.012l-1.3-.418a1.6,1.6,0,0,1-.319.572,1.739,1.739,0,0,1-1.32.55A1.729,1.729,0,0,1,22.2-1.43a2.045,2.045,0,0,1-.407-1.232ZM21.824-3.751a1.652,1.652,0,0,1,1.65-1.5,1.569,1.569,0,0,1,1.188.44,1.727,1.727,0,0,1,.484,1.056Z" transform="translate(25.079 10.054)" fill="#242424"/></g></g></svg>